<svg id="Layer_1" data-name="Layer 1" xmlns="http://www.w3.org/2000/svg" viewBox="0 0 2000 1000"><defs><style>.cls-1{fill:#454b56;}.cls-2{fill:#dde7ed;}.cls-3{fill:#fff;}.cls-4{fill:#bfd8ee;}.cls-5{fill:#d65581;}.cls-6{fill:#5d3037;}.cls-7{fill:#f27a9d;}.cls-8{fill:#c4d1db;}.cls-9{fill:#70b0e0;}.cls-10{fill:#83bce6;}.cls-11{fill:#9fceef;}.cls-12{fill:#cce4f6;}.cls-13{fill:#6a4d45;}.cls-14{fill:#493530;}.cls-15,.cls-18{fill:none;stroke-miterlimit:10;stroke-width:3px;}.cls-15{stroke:#6a4d45;}.cls-16{fill:#8cc1a9;}.cls-17{fill:#a5d8c4;}.cls-18{stroke:#5d3037;}.cls-19{fill:#7d98ce;}.cls-20{fill:#b6c9e8;}.cls-21{fill:#e2e2e2;}</style></defs><title>banner_mobile</title><rect class="cls-1" width="2834.8" height="1000"/><path class="cls-2" d="M1733,189.05c67.83,1.82,133.27,22.93,194.44,51.18a774.39,774.39,0,0,1,164.22,102.35c48.82,39.77,91.64,86,131.13,134.92,39,48.27,74.88,98.9,112,148.55s75.51,98.2,119.06,142.23q8.38,8.47,17,16.7c3.14,3,12.26-1,8.84-4.25-45.46-43.44-85.42-92.1-123.38-142.11-37.85-49.85-73.9-101.05-112.64-150.23-39-49.5-80.9-96.87-128.71-138.07a776.15,776.15,0,0,0-161.28-106.67c-60-29.83-124.55-53.65-191.67-60.07-8.55-.82-17.12-1.32-25.7-1.55-2.22-.06-5.35.59-6.29,3a3,3,0,0,0,2.94,4.05h0Z"/><path class="cls-2" d="M1716,856.77c109.87-16.39,209.6-68.29,300.78-129.69,96.81-65.2,188.42-138.71,275.91-215.87q74.75-65.93,145.27-136.44c1.63-1.63.74-3.58-1.16-4.34-2.22-.88-5.23.23-6.83,1.83A3138.32,3138.32,0,0,1,2167.47,607c-44.71,35.57-90.37,70.06-137.29,102.67-44.6,31-90.72,60-139.49,84-54.85,27-113.07,47.45-173.68,56.5-1.87.28-5.26,1.35-5.37,3.73s2.47,3.16,4.38,2.87h0Z"/><path class="cls-2" d="M880,118.18c3.2,38.66,14.94,75.74,29.14,111.64a935.43,935.43,0,0,0,46.41,99.78c33.21,61.58,73.7,119.52,121.93,170.3,50.87,53.56,110.44,97.73,173.79,135.41C1317.89,675,1388,708.85,1458.09,741.9c74.75,35.25,150.37,68.59,226.09,101.7l28.56,12.48a7,7,0,0,0,6.89-.71c1.25-.93,2.92-3.52.65-4.52-75.38-32.93-150.77-65.88-225.4-100.5C1424,717.45,1353.14,683.63,1285,645.25c-65.13-36.68-127.32-79-180.92-131.43-49.17-48.06-90.85-103.56-125.42-162.91a904,904,0,0,1-49.4-98.31c-15-35-28.86-71-35.81-108.49a286.76,286.76,0,0,1-3.8-28.5c-0.32-3.92-10-1.7-9.66,2.59h0Z"/><path class="cls-2" d="M870.24,731.29c70,7.43,141.26-9.7,206.94-32.72,60.44-21.18,117.95-49.94,172-84.3,51.56-32.79,99.8-70.57,145.35-111.25,51.75-46.23,100-96.19,148.09-146.14C1591.62,306,1640.72,255,1693.4,207.75q10.12-9.07,20.41-18c1.76-1.52.66-3.51-1.13-4.2-2.31-.89-5.11.34-6.83,1.83C1653.08,233,1604,282.59,1555.62,332.71s-96.35,100.71-147.4,148.15C1364,522,1317.29,560.41,1267.34,594.35c-52,35.3-107.36,65.56-165.84,88.61a727.77,727.77,0,0,1-93.67,29.82c-35.1,8.59-71.26,14.4-107.48,13.74q-13.34-.24-26.61-1.67c-4.36-.46-10,5.75-3.5,6.44h0Z"/><path class="cls-2" d="M863.53,119.82A2903.53,2903.53,0,0,1,1193,118.17,2935.25,2935.25,0,0,1,1522.15,154q92.4,15.36,183.72,36.45a10.81,10.81,0,0,0,6.75-1.24c0.77-.42,3.36-2,1.19-2.5a3012.23,3012.23,0,0,0-330-57,2918,2918,0,0,0-330.36-19.37q-92.93-.15-185.73,5.61c-1.48.09-5.8,0.72-6.47,2.3s0.57,1.67,2.28,1.57h0Z"/><path class="cls-2" d="M152.75,356.15A1005.41,1005.41,0,0,0,265.81,493.89,862.51,862.51,0,0,0,395.06,602,767,767,0,0,0,535.62,677.6a711.45,711.45,0,0,0,150.23,42.87,702.57,702.57,0,0,0,157,8.57q10.14-.58,20.25-1.45c1.69-.14,5.64-0.6,6.42-2.49s-0.6-2.43-2.47-2.27a697.91,697.91,0,0,1-156.86-4.19,699.7,699.7,0,0,1-150.77-39,752.17,752.17,0,0,1-141.74-72.25,849.74,849.74,0,0,1-129-103.34A983.38,983.38,0,0,1,174.65,371q-6.54-9.13-12.88-18.39c-1.55-2.26-10.92.81-9,3.56h0Z"/><path class="cls-3" d="M198.38,399c0,11.87,7.46,20.92,16.59,20.92h19.92c9.12,0,16.59-9.71,16.59-21.58v-6"/><path class="cls-2" d="M206.42,413c46,12.39,92-5.75,130.27-30.93,42.82-28.2,79-65.4,116-100.55,37.26-35.41,75.85-69,121.27-93.59,41.83-22.69,87.11-37.93,133.53-48C758.15,129,809.86,124.18,861.4,119.45c5-.46,7.77-6.72,1.12-6.11-91.28,8.38-183.8,18.49-267.93,57.51-45.07,20.91-85.13,49.48-121.95,82.65-37.77,34-72.69,71.29-112.34,103.2-40.91,32.92-93.55,65.2-148.1,50.51-2.14-.58-5.36.06-6.83,1.83-1.32,1.58-1.14,3.38,1.07,4h0Z"/><rect class="cls-4" x="157.26" y="170.52" width="4.39" height="21.4"/><path class="cls-5" d="M263.54,277.59c13.55,0,13.79,17.56,13.79,17.56-1.4,16.1-61.55,19.14-95.43,19.58l-47.72,0c-34.25-.55-91.58-3.83-92.95-19.54,0,0,.23-17.56,13.79-17.56H263.54Z"/><path class="cls-3" d="M120.13,398.77c0,11.87-7.43,18-16.55,18H83.66c-9.12,0-16.59-9.71-16.59-21.58v-4.41"/><path class="cls-3" d="M260.74,306.86S290,191.91,159.28,191.91,57.81,306.86,57.81,306.86l95.39,33.32Z"/><path class="cls-6" d="M99,271.52s1.53-6.45,7.56-6.45,7.56,6.45,7.56,6.45v10.87s-0.3,7.56-7.56,7.56S99,282.39,99,282.39V271.52Z"/><path class="cls-6" d="M204.4,271.52s1.53-6.45,7.56-6.45,7.56,6.45,7.56,6.45v10.87S219.22,290,212,290s-7.56-7.56-7.56-7.56V271.52Z"/><path class="cls-7" d="M274.89,375.42c0,20.16-62.87,23.59-95.89,24.15-3.41.06-39.09,0-39.09,0-32.92-.44-96.25-3.92-96.25-24.15l-2.44-82.58c1.37,15.71,58.69,19,92.95,19.54l47.72,0c33.88-.43,94-3.48,95.43-19.58Z"/><circle class="cls-7" cx="159.46" cy="157.16" r="13.36"/><circle class="cls-8" cx="157.63" cy="369.15" r="78.11"/><g id="_Group_" data-name="&lt;Group&gt;"><path class="cls-2" d="M183.22,308.73c2.94-1.42,6.34.56,8.9,2.6,17.92,14.28,30.31,37.52,25.91,60-0.32,1.66-.84,3.46-2.26,4.39-3.06,2-6.64-1.63-8.46-4.8-9.76-17.06-18.35-35.06-31.41-49.75-1.69-1.9-3.49-3.81-4.42-6.18s-0.75-5.39,1.15-7.09c2.58-2.31,6.62-1.14,9.83.15"/></g><g id="_Group_2" data-name="&lt;Group&gt;"><path class="cls-2" d="M219.72,385.92c-0.19.83-1.25-.73-0.43-0.93s1.43,0.74,1.76,1.52c0.81,2,1.64,4,1.32,6.14s-2.3,4.09-4.36,3.61a4.44,4.44,0,0,1-2.9-3.17c-1.44-4.48-.38-7,4.18-8.1"/></g><path class="cls-3" d="M40.53,294.35c-3.78,15.82,2.55,33.7,5.81,41.39l4.14,9.4c2.45,5.09,6.82,12.67,13.17,18.32A12.24,12.24,0,0,0,77,365.79c10-3.85,16-14,16-14a12.22,12.22,0,0,0-.51-13.53c-7.82-11.63-21.55-18.62-21.55-18.62"/><path class="cls-3" d="M278.24,292.84c5.72,15.37,1.28,34.6-1.19,43l-3.17,10.26c-1.93,5.59-5.54,14-11.42,20.89A13.3,13.3,0,0,1,249,371.67C238.27,369.54,231,360.33,231,360.33c-2.54-3.4-4-8-1-13.8,6.69-13.16,20-22.67,20-22.67"/><circle class="cls-8" cx="860.54" cy="116.39" r="78.11"/><g id="_Group_3" data-name="&lt;Group&gt;"><path class="cls-2" d="M886.13,56c2.94-1.42,6.34.56,8.9,2.6,17.92,14.28,30.31,37.52,25.91,60-0.32,1.66-.84,3.46-2.26,4.39-3.06,2-6.64-1.63-8.46-4.8-9.76-17.06-18.35-35.06-31.41-49.75-1.69-1.9-3.49-3.81-4.42-6.18s-0.75-5.39,1.15-7.09c2.58-2.31,6.62-1.14,9.83.15"/></g><g id="_Group_4" data-name="&lt;Group&gt;"><path class="cls-2" d="M922.63,133.17c-0.19.83-1.25-.73-0.43-0.93s1.43,0.74,1.76,1.52c0.81,2,1.64,4,1.32,6.14s-2.3,4.09-4.36,3.61a4.44,4.44,0,0,1-2.9-3.17c-1.44-4.48-.38-7,4.18-8.1"/></g><circle class="cls-8" cx="860.54" cy="716.62" r="78.11"/><g id="_Group_5" data-name="&lt;Group&gt;"><path class="cls-2" d="M886.13,656.2c2.94-1.42,6.34.56,8.9,2.6,17.92,14.28,30.31,37.52,25.91,60-0.32,1.66-.84,3.46-2.26,4.39-3.06,2-6.64-1.63-8.46-4.8-9.76-17.06-18.35-35.06-31.41-49.75-1.69-1.9-3.49-3.81-4.42-6.18s-0.75-5.39,1.15-7.09c2.58-2.31,6.62-1.14,9.83.15"/></g><g id="_Group_6" data-name="&lt;Group&gt;"><path class="cls-2" d="M922.63,733.39c-0.19.83-1.25-.73-0.43-0.93s1.43,0.74,1.76,1.52c0.81,2,1.64,4,1.32,6.14s-2.3,4.09-4.36,3.61a4.44,4.44,0,0,1-2.9-3.17c-1.44-4.48-.38-7,4.18-8.1"/></g><circle class="cls-8" cx="1709.84" cy="846.32" r="78.11"/><g id="_Group_7" data-name="&lt;Group&gt;"><path class="cls-2" d="M1735.43,785.91c2.94-1.42,6.34.56,8.9,2.6,17.92,14.28,30.31,37.52,25.91,60-0.32,1.66-.84,3.46-2.26,4.39-3.06,2-6.64-1.63-8.46-4.8-9.76-17.06-18.35-35.06-31.41-49.75-1.69-1.9-3.49-3.81-4.42-6.18s-0.75-5.39,1.15-7.09c2.58-2.31,6.62-1.14,9.83.15"/></g><g id="_Group_8" data-name="&lt;Group&gt;"><path class="cls-2" d="M1771.93,863.1c-0.19.83-1.25-.73-0.43-0.93s1.43,0.74,1.76,1.52c0.81,2,1.64,4,1.32,6.14s-2.3,4.09-4.36,3.61a4.44,4.44,0,0,1-2.9-3.17c-1.44-4.48-.38-7,4.18-8.1"/></g><path class="cls-9" d="M913.87,317.1c11.9,0,12.1,15.41,12.1,15.41-1.23,14.13-54,16.8-83.77,17.18l-41.89,0c-30.07-.48-80.38-3.36-81.58-17.15,0,0,.2-15.41,12.1-15.41h183Z"/><path class="cls-3" d="M788,423.46c0,10.42-6.52,15.77-14.53,15.77H756c-8,0-14.56-8.52-14.56-18.94v-3.87"/><path class="cls-3" d="M856.68,423.65c0,10.42,6.55,18.37,14.56,18.37h17.48c8,0,14.56-8.52,14.56-18.94v-5.3"/><path class="cls-3" d="M911.41,342.79s25.69-100.9-89.06-100.9-89.06,100.9-89.06,100.9L817,372Z"/><path class="cls-6" d="M769.47,311.77s1.34-5.66,6.64-5.66,6.64,5.66,6.64,5.66v9.54s-0.27,6.64-6.64,6.64-6.64-6.64-6.64-6.64v-9.54Z"/><path class="cls-6" d="M862,311.77s1.34-5.66,6.64-5.66,6.64,5.66,6.64,5.66v9.54s-0.27,6.64-6.64,6.64-6.64-6.64-6.64-6.64v-9.54Z"/><path class="cls-10" d="M923.83,403c0,17.7-55.18,20.71-84.16,21.19-3,.05-34.32,0-34.32,0-28.89-.39-84.48-3.44-84.48-21.2l-2.14-72.49c1.2,13.79,51.52,16.67,81.58,17.15l41.89,0c29.74-.38,82.54-3.05,83.77-17.18Z"/><path class="cls-3" d="M719.26,334.46c-9.46,10.69-11.95,27.15-12.59,34.46l-0.68,9c-0.2,5,0,12.63,2.63,19.63a10.74,10.74,0,0,0,9.37,7.31c9.36,1.16,18.17-4.21,18.17-4.21a10.72,10.72,0,0,0,5.2-10.69c-1.25-12.23-9-23.32-9-23.32"/><path class="cls-3" d="M925.45,334.46c9.46,10.69,11.95,27.15,12.59,34.46l0.68,9c0.2,5,0,12.63-2.63,19.63a10.74,10.74,0,0,1-9.37,7.31c-9.36,1.16-18.17-4.21-18.17-4.21a10.72,10.72,0,0,1-5.2-10.69c1.25-12.23,9-23.32,9-23.32"/><path class="cls-11" d="M793,249.66a2.58,2.58,0,0,1-1.43-2.76s8.16-39.49,49.26-72.26c0,0,13.7,4.57,12.56,81.64,0,0-17.7,3.43-35.4,0S793,249.66,793,249.66Z"/><path class="cls-3" d="M741.5,283.48s-2.92-64.29,5.43-66.79,29.22,30.06,38,46.76c0,0-15.52,9.18-22,12.52S741.5,283.48,741.5,283.48Z"/><path class="cls-12" d="M753.82,237.82c-0.74-.82-1.42-0.59-1.53.5l-2.2,23.09a2.27,2.27,0,0,0,1.77,2.38l9,1.79a3.3,3.3,0,0,0,3.09-1.26l4.82-7a2.67,2.67,0,0,0-.2-3.13Z"/><path class="cls-3" d="M903.21,283.48s2.92-64.29-5.43-66.79-29.22,30.06-38,46.76c0,0,15.52,9.18,22,12.52S903.21,283.48,903.21,283.48Z"/><path class="cls-12" d="M890.88,237.82c0.74-.82,1.42-0.59,1.53.5l2.2,23.09a2.27,2.27,0,0,1-1.77,2.38l-9,1.79a3.3,3.3,0,0,1-3.09-1.26l-4.82-7a2.67,2.67,0,0,1,.2-3.13Z"/><ellipse class="cls-8" cx="846.24" cy="164.98" rx="25.32" ry="43.33" transform="translate(394.42 899.28) rotate(-69.43)"/><path class="cls-13" d="M962.55,748.64s-14.5-27.32,12.54-36.66,32.84,24.91,32.84,24.91Z"/><path class="cls-13" d="M1091.84,770.41s22.64-21.07.16-38.74-39.19,12.79-39.19,12.79Z"/><path class="cls-14" d="M1109,824.75c11.73,2,9.37,17.2,9.37,17.2-3.56,13.72-56,7.6-85.41,3l-41.28-7c-29.55-5.47-78.67-16.65-77.56-30.44,0,0,2.76-15.16,14.48-13.18Z"/><path class="cls-13" d="M949.53,903.12c-10,13.8-20.35,17.08-26.84,12.4L908.52,905.3c-6.49-4.68-3.66-19.8,6.29-33.61l3.7-5.13"/><path class="cls-13" d="M1033.63,921.43c-0.15,12.54,6.28,22.18,14.28,22.28l17.47,0.21c8,0.1,14.67-10.08,14.82-22.62l0.08-6.38"/><path class="cls-3" d="M1102.29,849.66s42.06-95.18-71-114.22S926.73,820.1,926.73,820.1l77.67,42.71Z"/><path class="cls-13" d="M964.77,786.78a11.16,11.16,0,0,1,19.58,7.67l-2.52,6.42-2,5.23s-3.57,8-13,4.27-6.61-11.94-6.61-11.94Z"/><path class="cls-3" d="M1112.46,871.19L1104.54,911c-2.94,17.44-57.83,11.25-86.47,6.92-3-.45-33.82-5.69-33.82-5.69-28.41-5.18-82.69-17.41-79.74-34.91l5.75-41.66"/><path class="cls-13" d="M921.61,845.22c-14.85-5.09-25.78-18.53-30.19-24.7l-5.3-7.65c-2.75-4.29-6.46-11.21-7.52-18.61-0.77-5.33,2.06-8.7,5.47-10.81,8.64-5.36,20.1-4.68,20.1-4.68,4.13,0.35,8.42,2.07,10.63,7.06,5.07,11.42,3.15,24.82,3.15,24.82"/><path class="cls-13" d="M1103.57,845.12c12.65,6.6,20.84,21.08,24.05,27.67l3.84,8.15c2,4.55,4.46,11.8,4.55,19.26a10.74,10.74,0,0,1-6.13,10.17c-8.33,4.43-18.47,2.55-18.47,2.55a10.72,10.72,0,0,1-8.66-8.12c-3.2-11.87.07-25,.07-25"/><path class="cls-13" d="M1015.56,804.9a5.11,5.11,0,0,1,4-1.12,6.93,6.93,0,0,1,3.79,2.43s-1.43,3.3-4.47,2.79S1015.56,804.9,1015.56,804.9Z"/><path class="cls-15" d="M1019.07,807.72s-1,8.91-7.61,6.37-4.95-7.53-4.95-7.53"/><path class="cls-15" d="M1019.09,807.72s-2,8.76,5.1,8.51,7.14-5.49,7.14-5.49"/><path class="cls-13" d="M1077.25,805.71a11.16,11.16,0,0,0-21,.83l0.27,6.89,0.22,5.61s0.77,8.68,10.85,8.28,10.16-9.12,10.16-9.12Z"/><path class="cls-13" d="M1112.46,871.19c-3.56,13.72-54,6.66-83.39,2.1l-41.28-7c-29.55-5.47-78.67-16.65-77.56-30.44l0-.18,4.16-30.14c-1.11,13.79,48,25,77.56,30.44l41.28,7c29.38,4.56,81.85,10.69,85.41-3l-6.22,31.25"/><path class="cls-16" d="M1806.69,332.83c12.59,0,12.81,16.31,12.81,16.31-1.3,15-57.17,17.78-88.64,18.18l-44.33,0c-31.82-.51-85.06-3.56-86.33-18.15,0,0,.22-16.31,12.81-16.31h193.7Z"/><path class="cls-3" d="M1673.48,445.39c0,11-6.9,16.69-15.37,16.69h-18.5c-8.47,0-15.41-9-15.41-20v-4.1"/><path class="cls-3" d="M1746.16,445.58c0,11,6.93,19.44,15.41,19.44h18.5c8.47,0,15.41-9,15.41-20v-5.61"/><path class="cls-3" d="M1804.09,360s27.19-106.77-94.25-106.77S1615.59,360,1615.59,360l88.6,30.95Z"/><path class="cls-6" d="M1653.88,327.19s1.42-6,7-6,7,6,7,6v10.1s-0.28,7-7,7-7-7-7-7v-10.1Z"/><path class="cls-6" d="M1751.75,327.19s1.42-6,7-6,7,6,7,6v10.1s-0.28,7-7,7-7-7-7-7v-10.1Z"/><path class="cls-17" d="M1817.23,423.7c0,18.73-58.4,21.91-89.06,22.43-3.16.05-36.31,0-36.31,0-30.57-.41-89.4-3.64-89.4-22.43L1600.18,347c1.27,14.59,54.52,17.64,86.33,18.15l44.33,0c31.47-.4,87.34-3.23,88.64-18.18Z"/><path class="cls-3" d="M1605.48,381c-13.56-6.66-22.61-21.78-26.18-28.67l-4.28-8.53c-2.19-4.77-5-12.38-5.31-20.27a11.37,11.37,0,0,1,6.23-10.92c8.7-4.9,19.48-3.18,19.48-3.18a11.35,11.35,0,0,1,9.38,8.37c3.69,12.48.57,26.45,0.57,26.45"/><path class="cls-3" d="M1816.13,382.58c13.4-7,22.09-22.3,25.49-29.28l4.07-8.63c2.07-4.82,4.73-12.49,4.83-20.39a11.37,11.37,0,0,0-6.49-10.77c-8.81-4.69-19.55-2.72-19.55-2.72a11.35,11.35,0,0,0-9.18,8.59c-3.4,12.56.05,26.45,0.05,26.45"/><path class="cls-6" d="M1705.66,330.57a5.42,5.42,0,0,1,4-1.87,7.33,7.33,0,0,1,4.38,1.87s-0.92,3.7-4.18,3.7S1705.66,330.57,1705.66,330.57Z"/><path class="cls-18" d="M1709.83,332.9s0.5,9.49-6.82,8-6.49-7-6.49-7"/><path class="cls-18" d="M1709.84,332.9s-0.5,9.49,6.82,8,6.49-7,6.49-7"/><path class="cls-6" d="M1633.57,342s-3.63.38-3.92-1,3.2-2.48,3.2-2.48l3.31-.68,2.7-.55s4.19-.79,4.54.89-3.82,2.61-3.82,2.61Z"/><path class="cls-6" d="M1634.68,353.15s-3.54,1.42-4.2.15S1633,350,1633,350l3.14-1.62,2.56-1.32s4-2,4.78-.45-3.15,3.62-3.15,3.62Z"/><path class="cls-6" d="M1786.11,342.57s3.63,0.38,3.92-1-3.2-2.48-3.2-2.48l-3.31-.68-2.7-.55s-4.19-.79-4.54.89,3.82,2.61,3.82,2.61Z"/><path class="cls-6" d="M1785,353.7s3.54,1.42,4.2.15-2.56-3.32-2.56-3.32l-3.14-1.62-2.56-1.32s-4-2-4.78-.45,3.15,3.62,3.15,3.62Z"/><circle class="cls-8" cx="1709.84" cy="188.61" r="78.11"/><g id="_Group_9" data-name="&lt;Group&gt;"><path class="cls-2" d="M1735.43,128.2c2.94-1.42,6.34.56,8.9,2.6,17.92,14.28,30.31,37.52,25.91,60-0.32,1.66-.84,3.46-2.26,4.39-3.06,2-6.64-1.63-8.46-4.8-9.76-17.06-18.35-35.06-31.41-49.75-1.69-1.9-3.49-3.81-4.42-6.18s-0.75-5.39,1.15-7.09c2.58-2.31,6.62-1.14,9.83.15"/></g><g id="_Group_10" data-name="&lt;Group&gt;"><path class="cls-2" d="M1771.93,205.39c-0.19.83-1.25-.73-0.43-0.93s1.43,0.74,1.76,1.52c0.81,2,1.64,4,1.32,6.14s-2.3,4.09-4.36,3.61a4.44,4.44,0,0,1-2.9-3.17c-1.44-4.48-.38-7,4.18-8.1"/></g><path class="cls-19" d="M1850.84,614.09c12.74-2.53,16.23,13.94,16.23,13.94,1.69,15.39-54.28,29.47-86.05,36.2l-44.87,8.87c-32.3,5.87-86.8,13.49-91-1,0,0-3.06-16.55,9.68-19.08Z"/><path class="cls-20" d="M1853.67,642.13s6.07-113.51-116.82-89.12-73.93,127-73.93,127l95.88,13.52Z"/><path class="cls-3" d="M1758,636.81s-16.54-51,32.43-60.73S1841.71,640,1841.71,640l0.07,12.16-20.06,44.42-55.26-15.75Z"/><path class="cls-3" d="M1749.32,638.53s-4.2-53.46-53.17-43.74-23,78.67-23,78.67l6,14.08,34.11,30.56,45.06-35.65Z"/><path class="cls-20" d="M1738.65,751c0.15,19.82-6.89,30.05-15.63,30.12l-19.09.15c-8.74.07-16-16.09-16.17-35.91l-0.06-7.36"/><path class="cls-20" d="M1812.63,741.73c4.34,12.84,14.42,20.35,22.7,17.55l18.08-6.11c8.28-2.8,11.51-15.59,7.17-28.43l-2.21-6.54"/><path class="cls-6" d="M1695.07,639.07s0.23-6.34,5.9-7.47,8.31,4.65,8.31,4.65l1.12,5.63,0.91,4.59s1.13,7.16-5.7,8.52-8.52-5.7-8.52-5.7Z"/><path class="cls-6" d="M1794.12,619.41s0.23-6.34,5.9-7.47,8.31,4.65,8.31,4.65l1.12,5.63,0.91,4.59s1.13,7.16-5.7,8.52-8.52-5.7-8.52-5.7Z"/><polygon class="cls-3" points="1732.63 663.3 1751.76 649.49 1787.65 652.38 1766.46 680.84 1732.63 663.3"/><path class="cls-19" d="M1741.58,650.7s3.88-7.44,12.16-9,16,3.37,16,3.37-0.62,13.11-11.62,15.29S1741.58,650.7,1741.58,650.7Z"/><path class="cls-20" d="M1646.05,671.77c-11.36,10.1-16.07,27.19-17.68,34.83l-1.86,9.42c-0.84,5.21-1.55,13.35.3,21.08a11.44,11.44,0,0,0,9,8.92c9.75,2.41,19.74-2.15,19.74-2.15a11.42,11.42,0,0,0,6.85-10.64c0.23-13.09-6.55-25.8-6.55-25.8"/><path class="cls-20" d="M1866.85,627.72c14.17,5.5,24.54,19.88,28.72,26.48l5,8.18c2.6,4.59,6.11,12,7.08,19.86a11.44,11.44,0,0,1-5.3,11.49c-8.3,5.66-19.25,4.87-19.25,4.87A11.42,11.42,0,0,1,1873,691c-4.78-12.19-2.85-26.46-2.85-26.46"/><path class="cls-21" d="M1879.4,699.24c3.62,18.26-54.86,33.09-85.79,39.75-3.19.69-36.75,7.3-36.75,7.3-31,5.74-91.17,14.41-94.81-3.92L1644.92,668c4.11,14,58.58,6.25,90.88.36l44.87-8.87c31.77-6.71,87.76-20.69,86.19-35.53Z"/><path class="cls-3" d="M1879.76,703.93c3.76,18.95-54.7,33.91-85.63,40.58-3.19.69-36.75,7.3-36.75,7.3-31,5.73-91.2,14.27-95-4.75l-17.7-77.17c4.22,14.51,58.71,6.9,91,1l44.87-8.87c31.77-6.73,87.74-20.81,86.05-36.2Z"/></svg>