<svg id="Layer_1" data-name="Layer 1" xmlns="http://www.w3.org/2000/svg" viewBox="0 0 3600 1200"><defs><style>.cls-1{fill:#454b56;}.cls-2{fill:#dde7ed;}.cls-3{fill:#c4d1db;}.cls-4{fill:#fff;}.cls-5{fill:#bfd8ee;}.cls-6{fill:#d65581;}.cls-7{fill:#5d3037;}.cls-8{fill:#f27a9d;}.cls-9{fill:#70b0e0;}.cls-10{fill:#83bce6;}.cls-11{fill:#9fceef;}.cls-12{fill:#cce4f6;}.cls-13{fill:#6a4d45;}.cls-14{fill:#493530;}.cls-15,.cls-18{fill:none;stroke-miterlimit:10;stroke-width:4px;}.cls-15{stroke:#6a4d45;}.cls-16{fill:#8cc1a9;}.cls-17{fill:#a5d8c4;}.cls-18{stroke:#5d3037;}.cls-19{fill:#7d98ce;}.cls-20{fill:#b6c9e8;}.cls-21{fill:#e2e2e2;}.cls-22{fill:#e2b175;}.cls-23{fill:#ae875c;}.cls-24{fill:#e4ae71;}.cls-25{fill:#e8b7a6;}.cls-26{fill:#fbc8b7;}.cls-27{fill:#f7fbfe;}.cls-28{fill:#f6c3af;}</style></defs><title>banner_desktop</title><rect class="cls-1" x="-0.39" width="3602.52" height="1200"/><path class="cls-2" d="M3140.1,1031.9c70.52,59.67,158.2,93.94,247.85,112.57,100.31,20.84,203.26,21.71,305.29,22.55,60.75,0.5,121.61.91,182.2,5.84,7.49,0.61,16-.82,21.86-5.86,4.4-3.76,4.07-9.48-2.69-10-108.28-8.82-217-4.14-325.38-9.28-92.3-4.37-185.5-17.07-271.77-51.63-46.49-18.63-90.27-43.52-128.56-75.92-5.23-4.42-14.67-2.19-20.34.14-2.91,1.2-13.67,7.21-8.46,11.62h0Z"/><path class="cls-2" d="M3123.88,476.38c30.41-7.83,55.15-29.18,79.5-48q35.6-27.45,70.17-56.19,69.54-57.8,134.78-120.53,64.52-62,124.46-128.51Q3592.38,57,3647.11-13.28q55.44-71.24,105.55-146.4,6.24-9.34,12.4-18.74c4.27-6.51-3.75-12.06-9.35-12.73a21.07,21.07,0,0,0-20.15,9.39q-47.91,73.07-101,142.53Q3581.24,30.48,3523.11,96.3q-58.37,66.09-121.34,127.91c-41.76,41-84.14,79.7-128.77,117.6q-33.6,28.54-68.22,55.85-17.3,13.66-34.85,27c-5.73,4.36-11.46,8.73-17.29,12.95-2.81,2-5.64,4-8.53,5.93a85.69,85.69,0,0,1-8.39,5.07c-3,1.62-6.1,3.11-9.25,4.43-0.79.33-1.57,0.66-2.37,1,0.36-.13,1.79-0.62,0,0s-3.82,1.16-5.76,1.66c-6,1.54-14.63,7.21-12.67,14.53s12.38,7.76,18.24,6.25h0Z"/><path class="cls-2" d="M2219.22,230.18c84,2.21,164.9,28.37,240.69,63.31A962.34,962.34,0,0,1,2664,420.75C2724.54,470,2777.6,527.35,2826.59,588s94.1,124.23,140.78,186.62,95,123.49,149.76,178.82q10.2,10.3,20.7,20.32c5.69,5.44,14,5.66,21,2.28,4.5-2.18,13.05-10.41,7.31-15.89-57-54.46-107.11-115.52-154.71-178.23-47.46-62.52-92.67-126.73-141.27-188.39-49-62.16-101.73-121.55-161.76-173.32-62-53.5-131-98.44-204.3-134.86-76-37.76-157.87-67.73-242.89-75.7q-15.6-1.46-31.26-1.85c-7.43-.2-16.67,2-20.13,9.46-3,6.54,2.72,12.79,9.42,13h0Z"/><path class="cls-2" d="M2200.26,1065.89c70.11-10.44,137.91-31.95,202.37-61.24C2466,975.86,2526,940,2583.69,901.15c59.77-40.24,117.62-83.45,174.34-127.86q88.83-69.56,173.38-144.35,83.09-73.3,162-151.15,9.83-9.69,19.6-19.44c5-5,2.63-11.82-3.72-13.88-7.42-2.42-16.47.48-21.86,5.86Q3009.73,527.87,2928,601.23,2846.69,674,2761.28,742c-56.37,44.88-113.94,88.38-173.12,129.5-55.77,38.74-111.45,73.81-171.69,103.53q-22.69,11.19-46,21.16-11.84,5-23.82,9.74-5.6,2.19-11.22,4.29-3.22,1.2-6.44,2.37c0.36-.13,1.76-0.63,0,0l-4,1.43a693.76,693.76,0,0,1-98.2,26.76q-3.42.66-6.85,1.28c1.83-.33-2.87.49-3.53,0.6q-6.47,1.09-13,2c-6.47,1-16.15,4.25-17.17,12-1,7.29,8.44,10,14,9.19h0Z"/><circle class="cls-3" cx="3095.5" cy="451.79" r="97.81"/><g id="_Group_" data-name="&lt;Group&gt;"><path class="cls-2" d="M3127.54,376.14c3.69-1.78,7.94.71,11.14,3.26,22.44,17.88,38,47,32.45,75.14-0.41,2.08-1.06,4.33-2.83,5.49-3.83,2.5-8.32-2-10.59-6-12.22-21.36-23-43.9-39.33-62.29-2.12-2.39-4.38-4.77-5.54-7.74s-0.94-6.75,1.44-8.88c3.23-2.9,8.28-1.43,12.31.19"/></g><g id="_Group_2" data-name="&lt;Group&gt;"><path class="cls-2" d="M3173.24,472.8c-0.24,1-1.57-.91-0.54-1.17s1.8,0.92,2.2,1.91c1,2.45,2.06,5.06,1.65,7.68s-2.88,5.12-5.46,4.53c-1.83-.42-3.06-2.18-3.63-4-1.8-5.61-.47-8.71,5.24-10.14"/></g><path class="cls-2" d="M1144.93,137.13c4,48.47,18.75,95,36.56,140A1185.61,1185.61,0,0,0,1240.65,404c41.56,76.94,92.21,149.31,152.5,212.77,64.25,67.63,139.54,123.44,219.57,171,83.51,49.6,171.37,92.06,259.16,133.44,93.43,44,188,85.71,282.59,127.09l35.31,15.43a22.69,22.69,0,0,0,22.06-2.26c4.11-2.9,9.27-11.31,2.07-14.46-94.28-41.19-188.57-82.39-281.91-125.69-89.16-41.36-178.21-83.87-263.87-132.17-81.06-45.71-158.56-98.42-225.2-163.72-61.49-60.25-113.6-129.78-156.83-204.12a1118.47,1118.47,0,0,1-61-121.77c-18.55-43.29-35.64-87.83-44.32-134.27a357.35,357.35,0,0,1-4.88-36.35c-0.23-2.76-4.19-4.83-6.32-5.49a21.66,21.66,0,0,0-11.67.15c-6.44,1.92-13.53,6.09-12.91,13.62h0Z"/><path class="cls-2" d="M1138.73,908.6c89.39,9.54,180.71-12.18,264.62-41.64,77-27,150.16-63.47,219-107.22,65.36-41.54,126.43-89.51,184.15-141.07,64.83-57.92,125.24-120.52,185.51-183.09,61.46-63.81,123-127.69,189-186.84q12.48-11.18,25.18-22.13c5.37-4.64,2.41-11.58-3.6-13.45-7.75-2.41-16,.83-21.86,5.86-66.58,57.46-128.39,120.05-189.43,183.28-60.54,62.71-120.57,126-184.5,185.3-55,51-112.68,98.36-175.25,140.73C1567,772,1500,808.49,1426.92,837.22a894.1,894.1,0,0,1-115.58,36.53c-41.6,10.1-84.15,17.09-127.61,16.35q-16.94-.29-33.8-2.1c-7-.75-16.77,2.45-20.23,9.08s3.1,10.9,9,11.53h0Z"/><path class="cls-2" d="M1129.67,140.43q102.06-6.31,204.35-6.86,102.86-.5,205.64,4.83,103.46,5.36,206.5,16.57,102.62,11.16,204.5,28.16,102.82,17.09,204.58,39.85,12.77,2.85,25.53,5.8c6.87,1.58,15.42-1,21.6-4,2.62-1.25,10.65-6.41,3.8-8q-102.68-23.66-206.55-41.66-103.43-17.87-207.74-29.9-103-11.92-206.47-18-103.73-6.1-207.69-6.28-104.53-.17-209,5.58-12.85.71-25.7,1.5c-6.36.39-16.21,2.4-20.69,7.37s4.1,5.21,7.29,5h0Z"/><path class="cls-2" d="M234.93,436.06c42.18,61.5,89.36,119.59,141.78,172.68A1080.37,1080.37,0,0,0,538,743.62,966.93,966.93,0,0,0,715.1,839.06a899.1,899.1,0,0,0,190.38,54.28,889.66,889.66,0,0,0,199.23,10.77q12.31-.72,24.6-1.77c6.84-.58,16-2.14,20.53-8,4.27-5.48-3.68-7.64-7.89-7.28a852.22,852.22,0,0,1-194.6-5.18,868,868,0,0,1-186.66-48.33,935.23,935.23,0,0,1-176.52-89.89A1064.65,1064.65,0,0,1,422.75,614.35,1230.16,1230.16,0,0,1,280,447.83q-8.23-11.5-16.22-23.16c-1.28-1.86-6.44-2-8.13-1.93a35.46,35.46,0,0,0-12.08,2.55c-4,1.58-12.26,5.56-8.68,10.77h0Z"/><path class="cls-4" d="M300.86,486.23c0,14.86,9.35,26.2,20.77,26.2h24.94c11.42,0,20.77-12.16,20.77-27v-7.57"/><path class="cls-2" d="M305.32,509.46c62.31,16.87,125.3-7.92,176.86-42.33C536.63,430.79,582.71,383.23,630,338.38c22.56-21.39,45.5-42.73,69.86-61.91q19-15,39.3-28.3,9.73-6.38,19.72-12.33c6.54-3.9,13-7.55,18.71-10.63q20-10.72,40.92-19.78,10.43-4.53,21-8.65,4.68-1.82,9.38-3.56l5.48-2,1.13-.4,1.91-.66a715.51,715.51,0,0,1,83.88-23.1q10.74-2.3,21.53-4.33c2.88-.54-0.69.12,2.19-0.4l4.79-.86q5.59-1,11.19-1.91,21.16-3.5,42.44-6.23c28.5-3.71,57.1-6.59,85.72-9.27l20.78-1.92c6.16-.57,16.19-4.26,17.33-11.38,1.18-7.34-8.79-8.63-13.76-8.17-57,5.23-113.94,10.71-170.21,21.16-58.46,10.87-116,27.06-170.1,52.1-58.14,26.93-109.72,63.76-157.17,106.56-47,42.41-90.45,89-140,128.6a473.71,473.71,0,0,1-39.76,28.74,269.19,269.19,0,0,1-38.13,20.78q-5,2.22-10.13,4.22-2.33.91-4.69,1.77l0.11,0q-2,.66-3.92,1.29a187.68,187.68,0,0,1-20.42,5.31c-1.87.37-.08,0,0.26,0l-2.36.39q-2.75.44-5.52,0.78-5.11.63-10.25,0.92a60.11,60.11,0,0,1-7.9.1q-5.54-.14-11.05-0.73a112.64,112.64,0,0,1-18.57-3.63c-7.2-2-16.63.46-21.86,5.86-4.71,4.86-3.25,10.92,3.41,12.72h0Z"/><rect class="cls-5" x="249.37" y="200.14" width="5.5" height="26.79"/><path class="cls-6" d="M382.45,334.22c17,0,17.26,22,17.26,22-1.75,20.16-77.07,24-119.5,24.51l-59.76,0c-42.89-.69-114.67-4.79-116.38-24.47,0,0,.29-22,17.26-22H382.45Z"/><path class="cls-4" d="M202.88,486c0,14.86-9.3,22.5-20.72,22.5H157.21c-11.42,0-20.77-12.16-20.77-27v-5.52"/><path class="cls-4" d="M378.95,370.87S415.6,226.93,251.89,226.93,124.84,370.87,124.84,370.87l119.44,41.72Z"/><path class="cls-7" d="M176.46,326.62s1.91-8.07,9.47-8.07,9.47,8.07,9.47,8.07v13.61s-0.38,9.47-9.47,9.47-9.47-9.47-9.47-9.47V326.62Z"/><path class="cls-7" d="M308.4,326.62s1.91-8.07,9.47-8.07,9.47,8.07,9.47,8.07v13.61s-0.38,9.47-9.47,9.47-9.47-9.47-9.47-9.47V326.62Z"/><path class="cls-8" d="M396.66,456.72c0,25.24-78.73,29.54-120.07,30.23-4.27.07-49,0-49,0-41.22-.55-120.52-4.9-120.52-30.24l-3.05-103.41c1.71,19.67,73.49,23.78,116.38,24.47l59.76,0c42.43-.54,117.75-4.35,119.5-24.51Z"/><circle class="cls-8" cx="252.12" cy="183.41" r="16.73"/><circle class="cls-3" cx="249.84" cy="448.86" r="97.81"/><g id="_Group_3" data-name="&lt;Group&gt;"><path class="cls-2" d="M281.88,373.21c3.69-1.78,7.94.71,11.14,3.26,22.44,17.88,38,47,32.45,75.14-0.41,2.08-1.06,4.33-2.83,5.49-3.83,2.5-8.32-2-10.59-6-12.22-21.36-23-43.9-39.33-62.29-2.12-2.39-4.38-4.77-5.54-7.74s-0.94-6.75,1.44-8.88c3.23-2.9,8.28-1.43,12.31.19"/></g><g id="_Group_4" data-name="&lt;Group&gt;"><path class="cls-2" d="M327.58,469.87c-0.24,1-1.57-.91-0.54-1.17s1.8,0.92,2.2,1.91c1,2.45,2.06,5.06,1.65,7.68s-2.88,5.12-5.46,4.53c-1.83-.42-3.06-2.18-3.63-4-1.8-5.61-.47-8.71,5.24-10.14"/></g><path class="cls-4" d="M103.2,355.2C98.46,375,106.39,397.4,110.48,407l5.18,11.77c3.07,6.37,8.54,15.86,16.49,22.94,5.73,5.1,11.74,4.82,16.7,2.92,12.57-4.82,20-17.5,20-17.5,2.57-4.65,3.65-10.57-.63-16.94-9.79-14.56-27-23.32-27-23.32"/><path class="cls-4" d="M400.86,353.32c7.16,19.24,1.6,43.33-1.49,53.81l-4,12.84c-2.42,7-6.94,17.58-14.29,26.16-5.3,6.18-11.51,7-16.83,5.9-13.47-2.67-22.63-14.2-22.63-14.2-3.18-4.26-5-10.07-1.31-17.28,8.38-16.48,25-28.39,25-28.39"/><circle class="cls-3" cx="1130" cy="132.37" r="97.81"/><g id="_Group_5" data-name="&lt;Group&gt;"><path class="cls-2" d="M1162,56.71c3.69-1.78,7.94.71,11.14,3.26,22.44,17.88,38,47,32.45,75.14-0.41,2.08-1.06,4.33-2.83,5.49-3.83,2.5-8.32-2-10.59-6-12.22-21.36-23-43.9-39.33-62.29-2.12-2.39-4.38-4.77-5.54-7.74s-0.94-6.75,1.44-8.88c3.23-2.9,8.28-1.43,12.31.19"/></g><g id="_Group_6" data-name="&lt;Group&gt;"><path class="cls-2" d="M1207.75,153.37c-0.24,1-1.57-.91-0.54-1.17s1.8,0.92,2.2,1.91c1,2.45,2.06,5.06,1.65,7.68s-2.88,5.12-5.46,4.53c-1.83-.42-3.06-2.18-3.63-4-1.8-5.61-.47-8.71,5.24-10.14"/></g><circle class="cls-3" cx="1130" cy="883.96" r="97.81"/><g id="_Group_7" data-name="&lt;Group&gt;"><path class="cls-2" d="M1162,808.31c3.69-1.78,7.94.71,11.14,3.26,22.44,17.88,38,47,32.45,75.14-0.41,2.08-1.06,4.33-2.83,5.49-3.83,2.5-8.32-2-10.59-6-12.22-21.36-23-43.9-39.33-62.29-2.12-2.39-4.38-4.77-5.54-7.74s-0.94-6.75,1.44-8.88c3.23-2.9,8.28-1.43,12.31.19"/></g><g id="_Group_8" data-name="&lt;Group&gt;"><path class="cls-2" d="M1207.75,905c-0.24,1-1.57-.91-0.54-1.17s1.8,0.92,2.2,1.91c1,2.45,2.06,5.06,1.65,7.68s-2.88,5.12-5.46,4.53c-1.83-.42-3.06-2.18-3.63-4-1.8-5.61-.47-8.71,5.24-10.14"/></g><circle class="cls-3" cx="2193.48" cy="1046.37" r="97.81"/><g id="_Group_9" data-name="&lt;Group&gt;"><path class="cls-2" d="M2225.52,970.72c3.69-1.78,7.94.71,11.14,3.26,22.44,17.88,38,47,32.45,75.14-0.41,2.08-1.06,4.33-2.83,5.49-3.83,2.5-8.32-2-10.59-6-12.22-21.36-23-43.9-39.33-62.29-2.12-2.39-4.38-4.77-5.54-7.74s-0.94-6.75,1.44-8.88c3.23-2.9,8.28-1.43,12.31.19"/></g><g id="_Group_10" data-name="&lt;Group&gt;"><path class="cls-2" d="M2271.22,1067.38c-0.24,1-1.57-.91-0.54-1.17s1.8,0.92,2.2,1.91c1,2.45,2.06,5.06,1.65,7.68s-2.88,5.12-5.46,4.53c-1.83-.42-3.06-2.18-3.63-4-1.8-5.61-.47-8.71,5.24-10.14"/></g><circle class="cls-3" cx="3135.32" cy="1002.57" r="97.81"/><g id="_Group_11" data-name="&lt;Group&gt;"><path class="cls-2" d="M3167.36,926.91c3.69-1.78,7.94.71,11.14,3.26,22.44,17.88,38,47,32.45,75.14-0.41,2.08-1.06,4.33-2.83,5.49-3.83,2.5-8.32-2-10.59-6-12.22-21.36-23-43.9-39.33-62.29-2.12-2.39-4.38-4.77-5.54-7.74s-0.94-6.75,1.44-8.88c3.23-2.9,8.28-1.43,12.31.19"/></g><g id="_Group_12" data-name="&lt;Group&gt;"><path class="cls-2" d="M3213.07,1023.57c-0.24,1-1.57-.91-0.54-1.17s1.8,0.92,2.2,1.91c1,2.45,2.06,5.06,1.65,7.68s-2.88,5.12-5.46,4.53c-1.83-.42-3.06-2.18-3.63-4-1.8-5.61-.47-8.71,5.24-10.14"/></g><path class="cls-9" d="M1196.78,383.69c14.9,0,15.15,19.3,15.15,19.3-1.54,17.69-67.65,21-104.89,21.52l-52.45,0c-37.65-.61-100.65-4.21-102.16-21.48,0,0,.26-19.3,15.15-19.3h229.2Z"/><path class="cls-4" d="M1039.16,516.88c0,13-8.16,19.75-18.19,19.75H999.08c-10,0-18.23-10.67-18.23-23.72v-4.85"/><path class="cls-4" d="M1125.17,517.11c0,13,8.2,23,18.23,23h21.89c10,0,18.23-10.67,18.23-23.72v-6.64"/><path class="cls-4" d="M1193.71,415.86s32.17-126.34-111.52-126.34S970.66,415.86,970.66,415.86l104.84,36.62Z"/><path class="cls-7" d="M1016,377s1.68-7.08,8.31-7.08,8.31,7.08,8.31,7.08V389s-0.33,8.31-8.31,8.31S1016,389,1016,389V377Z"/><path class="cls-7" d="M1131.78,377s1.68-7.08,8.31-7.08,8.31,7.08,8.31,7.08V389s-0.33,8.31-8.31,8.31-8.31-8.31-8.31-8.31V377Z"/><path class="cls-10" d="M1209.25,491.22c0,22.16-69.1,25.93-105.39,26.54-3.75.06-43,0-43,0-36.18-.48-105.78-4.31-105.78-26.54l-2.68-90.77c1.5,17.27,64.51,20.87,102.16,21.48l52.45,0c37.24-.48,103.35-3.82,104.89-21.52Z"/><path class="cls-4" d="M953.09,405.43c-11.85,13.38-15,34-15.77,43.15l-0.85,11.26c-0.25,6.2.06,15.81,3.3,24.58,2.33,6.32,7.1,8.58,11.73,9.15,11.72,1.45,22.76-5.27,22.76-5.27,3.91-2.54,7.19-6.68,6.51-13.38-1.57-15.32-11.26-29.21-11.26-29.21"/><path class="cls-4" d="M1211.28,405.43c11.85,13.38,15,34,15.77,43.15l0.85,11.26c0.25,6.2-.06,15.81-3.3,24.58-2.33,6.32-7.1,8.58-11.73,9.15-11.72,1.45-22.76-5.27-22.76-5.27-3.91-2.54-7.19-6.68-6.51-13.38,1.57-15.32,11.26-29.21,11.26-29.21"/><path class="cls-11" d="M1045,299a2.58,2.58,0,0,1-1.43-2.76s10.32-49.94,61.79-91c0,0,17.16,5.72,15.73,102.23,0,0-22.16,4.29-44.32,0S1045,299,1045,299Z"/><path class="cls-4" d="M980.94,341.59s-3.66-80.5,6.8-83.64,36.59,37.64,47.57,58.55c0,0-19.44,11.5-27.49,15.68S980.94,341.59,980.94,341.59Z"/><path class="cls-12" d="M996,284c-0.74-.82-1.42-0.59-1.53.5l-2.85,29.92a2.27,2.27,0,0,0,1.77,2.38l12.22,2.44a3.3,3.3,0,0,0,3.09-1.26l6.61-9.62a2.67,2.67,0,0,0-.2-3.13Z"/><path class="cls-4" d="M1183.43,341.59s3.66-80.5-6.8-83.64-36.59,37.64-47.57,58.55c0,0,19.44,11.5,27.49,15.68S1183.43,341.59,1183.43,341.59Z"/><path class="cls-12" d="M1168.33,284c0.74-.82,1.42-0.59,1.53.5l2.85,29.92a2.27,2.27,0,0,1-1.77,2.38l-12.22,2.44a3.3,3.3,0,0,1-3.09-1.26l-6.61-9.62a2.67,2.67,0,0,1,.2-3.13Z"/><ellipse class="cls-3" cx="1112.09" cy="193.21" rx="31.7" ry="54.26" transform="translate(540.43 1166.49) rotate(-69.43)"/><path class="cls-13" d="M1257.74,924.06s-18.15-34.21,15.7-45.9,41.12,31.19,41.12,31.19Z"/><path class="cls-13" d="M1419.63,951.31s28.35-26.38.2-48.51-49.07,16-49.07,16Z"/><path class="cls-14" d="M1441.08,1019.36c14.68,2.47,11.73,21.54,11.73,21.54-4.45,17.18-70.16,9.51-106.95,3.8l-51.69-8.74c-37-6.84-98.51-20.85-97.12-38.12,0,0,3.45-19,18.14-16.51Z"/><path class="cls-13" d="M1241.44,1117.49c-12.46,17.28-25.48,21.39-33.61,15.53l-17.75-12.8c-8.13-5.86-4.58-24.8,7.88-42.08l4.63-6.42"/><path class="cls-13" d="M1346.74,1140.42c-0.19,15.7,7.86,27.78,17.88,27.9l21.88,0.26c10,0.12,18.37-12.63,18.56-28.33l0.1-8"/><path class="cls-4" d="M1432.71,1050.55s52.67-119.18-89-143-130.88,106-130.88,106l97.25,53.49Z"/><path class="cls-13" d="M1260.52,971.81a14,14,0,0,1,24.51,9.6l-3.15,8-2.56,6.55s-4.47,10-16.23,5.35-8.28-14.95-8.28-14.95Z"/><path class="cls-4" d="M1445.46,1077.51l-9.92,49.88c-3.68,21.84-72.41,14.09-108.27,8.67-3.7-.56-42.35-7.12-42.35-7.12-35.58-6.48-103.54-21.8-99.86-43.71l7.21-52.17"/><path class="cls-13" d="M1206.47,1045c-18.59-6.37-32.28-23.2-37.8-30.93l-6.64-9.58c-3.45-5.38-8.09-14-9.42-23.3-1-6.68,2.58-10.89,6.85-13.54,10.82-6.71,25.17-5.86,25.17-5.86,5.17,0.44,10.54,2.59,13.32,8.84,6.35,14.3,3.94,31.09,3.94,31.09"/><path class="cls-13" d="M1434.32,1044.86c15.84,8.27,26.1,26.4,30.12,34.65l4.81,10.21c2.45,5.7,5.58,14.78,5.69,24.12,0.08,6.73-3.57,10.55-7.68,12.73-10.43,5.54-23.13,3.2-23.13,3.2-4.56-1-9.1-3.67-10.85-10.17-4-14.86.09-31.29,0.09-31.29"/><path class="cls-13" d="M1324.11,994.5a6.4,6.4,0,0,1,5-1.4,8.67,8.67,0,0,1,4.74,3s-1.8,4.14-5.6,3.5S1324.11,994.5,1324.11,994.5Z"/><path class="cls-15" d="M1328.52,998s-1.28,11.16-9.53,8-6.2-9.43-6.2-9.43"/><path class="cls-15" d="M1328.53,998s-2.45,11,6.39,10.66,8.94-6.88,8.94-6.88"/><path class="cls-13" d="M1401.37,995.52a14,14,0,0,0-26.31,1l0.34,8.63,0.28,7s1,10.87,13.59,10.37,12.72-11.41,12.72-11.41Z"/><path class="cls-13" d="M1445.46,1077.51c-4.45,17.18-67.63,8.34-104.42,2.63l-51.69-8.74c-37-6.84-98.51-20.85-97.12-38.12l0-.22,5.21-37.74c-1.39,17.27,60.12,31.27,97.12,38.12l51.69,8.74c36.78,5.71,102.5,13.38,106.95-3.8l-7.78,39.13"/><path class="cls-16" d="M2314.75,403.39c15.76,0,16,20.43,16,20.43-1.63,18.72-71.59,22.26-111,22.77l-55.51,0c-39.84-.64-106.52-4.45-108.1-22.73,0,0,.27-20.43,16-20.43h242.54Z"/><path class="cls-4" d="M2147.95,544.33c0,13.81-8.64,20.9-19.25,20.9h-23.17c-10.61,0-19.29-11.3-19.29-25.1V535"/><path class="cls-4" d="M2239,544.58c0,13.81,8.68,24.34,19.29,24.34h23.17c10.61,0,19.29-11.3,19.29-25.1v-7"/><path class="cls-4" d="M2311.49,437.43s34-133.7-118-133.7-118,133.7-118,133.7l110.94,38.75Z"/><path class="cls-7" d="M2123.4,396.32s1.77-7.5,8.79-7.5,8.79,7.5,8.79,7.5V409s-0.35,8.79-8.79,8.79-8.79-8.79-8.79-8.79V396.32Z"/><path class="cls-7" d="M2246,396.32s1.77-7.5,8.79-7.5,8.79,7.5,8.79,7.5V409s-0.35,8.79-8.79,8.79S2246,409,2246,409V396.32Z"/><path class="cls-17" d="M2327.94,517.17c0,23.45-73.12,27.44-111.52,28.08-4,.07-45.47,0-45.47,0-38.29-.51-111.94-4.56-111.94-28.09l-2.84-96.05c1.59,18.27,68.26,22.08,108.1,22.73l55.51,0c39.41-.51,109.37-4,111-22.77Z"/><path class="cls-4" d="M2062.81,463.67c-17-8.34-28.31-27.27-32.78-35.9l-5.35-10.68c-2.74-6-6.29-15.5-6.65-25.38-0.26-7.12,3.5-11.25,7.8-13.68,10.89-6.14,24.4-4,24.4-4,4.85,0.91,9.72,3.65,11.75,10.48,4.62,15.63.71,33.12,0.71,33.12"/><path class="cls-4" d="M2326.57,465.68c16.78-8.74,27.66-27.93,31.92-36.66l5.1-10.8c2.6-6,5.93-15.65,6.05-25.53,0.09-7.13-3.77-11.17-8.12-13.49-11-5.88-24.48-3.41-24.48-3.41-4.82,1-9.64,3.87-11.5,10.76-4.25,15.73.07,33.12,0.07,33.12"/><path class="cls-7" d="M2188.25,400.56a6.78,6.78,0,0,1,5-2.34,9.18,9.18,0,0,1,5.48,2.34s-1.15,4.63-5.23,4.63S2188.25,400.56,2188.25,400.56Z"/><path class="cls-18" d="M2193.47,403.48s0.63,11.88-8.55,10-8.13-8.75-8.13-8.75"/><path class="cls-18" d="M2193.49,403.48s-0.63,11.88,8.55,10,8.13-8.75,8.13-8.75"/><path class="cls-7" d="M2098,414.9s-4.55.48-4.91-1.27,4-3.1,4-3.1l4.15-.85,3.38-.69s5.25-1,5.68,1.11-4.78,3.26-4.78,3.26Z"/><path class="cls-7" d="M2099.36,428.83s-4.44,1.77-5.25.19,3.21-4.16,3.21-4.16l3.94-2,3.2-1.65s5-2.47,6-.57-3.94,4.54-3.94,4.54Z"/><path class="cls-7" d="M2289,415.59s4.55,0.48,4.91-1.27-4-3.1-4-3.1l-4.15-.85-3.38-.69s-5.25-1-5.68,1.11,4.78,3.26,4.78,3.26Z"/><path class="cls-7" d="M2287.59,429.52s4.44,1.77,5.25.19-3.21-4.16-3.21-4.16l-3.94-2-3.2-1.65s-5-2.47-6-.57,3.94,4.54,3.94,4.54Z"/><circle class="cls-3" cx="2193.48" cy="222.8" r="97.81"/><g id="_Group_13" data-name="&lt;Group&gt;"><path class="cls-2" d="M2225.52,147.15c3.69-1.78,7.94.71,11.14,3.26,22.44,17.88,38,47,32.45,75.14-0.41,2.08-1.06,4.33-2.83,5.49-3.83,2.5-8.32-2-10.59-6-12.22-21.36-23-43.9-39.33-62.29-2.12-2.39-4.38-4.77-5.54-7.74s-0.94-6.75,1.44-8.88c3.23-2.9,8.28-1.43,12.31.19"/></g><g id="_Group_14" data-name="&lt;Group&gt;"><path class="cls-2" d="M2271.22,243.81c-0.24,1-1.57-.91-0.54-1.17s1.8,0.92,2.2,1.91c1,2.45,2.06,5.06,1.65,7.68s-2.88,5.12-5.46,4.53c-1.83-.42-3.06-2.18-3.63-4-1.8-5.61-.47-8.71,5.24-10.14"/></g><path class="cls-19" d="M2370,755.58c16-3.17,20.33,17.45,20.33,17.45,2.11,19.28-68,36.91-107.75,45.33l-56.18,11.11c-40.45,7.35-108.68,16.89-114-1.29,0,0-3.83-20.72,12.12-23.89Z"/><path class="cls-20" d="M2373.58,790.68s7.6-142.14-146.28-111.6-92.58,159-92.58,159L2254.78,855Z"/><path class="cls-4" d="M2253.77,784s-20.71-63.87,40.61-76,64.23,80,64.23,80l0.09,15.22-25.12,55.62-69.19-19.72Z"/><path class="cls-4" d="M2242.92,786.18s-5.25-66.94-66.57-54.77-28.79,98.51-28.79,98.51l7.48,17.64,42.71,38.27,56.42-44.65Z"/><path class="cls-20" d="M2229.56,927c0.19,24.82-8.62,37.63-19.57,37.72l-23.9.19c-10.95.09-20.06-20.15-20.25-45l-0.07-9.22"/><path class="cls-20" d="M2322.19,915.41c5.43,16.08,18.06,25.48,28.43,22l22.65-7.65c10.37-3.5,14.41-19.53,9-35.6l-2.76-8.19"/><path class="cls-7" d="M2175,786.86s0.29-7.94,7.39-9.35,10.41,5.82,10.41,5.82l1.4,7.05,1.14,5.74s1.41,9-7.13,10.67-10.67-7.13-10.67-7.13Z"/><path class="cls-7" d="M2299,762.24s0.29-7.94,7.39-9.35,10.41,5.82,10.41,5.82l1.4,7.05,1.14,5.74s1.41,9-7.13,10.67-10.67-7.13-10.67-7.13Z"/><polygon class="cls-4" points="2222.01 817.19 2245.97 799.9 2290.91 803.52 2264.38 839.16 2222.01 817.19"/><path class="cls-19" d="M2233.23,801.42s4.86-9.32,15.23-11.23,20.08,4.22,20.08,4.22-0.77,16.42-14.55,19.15S2233.23,801.42,2233.23,801.42Z"/><path class="cls-20" d="M2113.61,827.8c-14.22,12.65-20.12,34-22.14,43.61l-2.32,11.79c-1.05,6.52-1.94,16.72.37,26.4,1.66,7,6.42,10,11.24,11.16,12.21,3,24.72-2.69,24.72-2.69,4.45-2.19,8.45-6.15,8.57-13.32,0.28-16.39-8.21-32.3-8.21-32.3"/><path class="cls-20" d="M2390.09,772.64c17.74,6.89,30.73,24.89,36,33.15l6.29,10.24c3.26,5.75,7.65,15,8.86,24.87,0.87,7.12-2.54,11.58-6.64,14.38-10.39,7.09-24.11,6.1-24.11,6.1-4.94-.5-10.06-2.82-12.68-9.49-6-15.26-3.57-33.13-3.57-33.13"/><path class="cls-21" d="M2405.79,862.2c4.54,22.86-68.69,41.44-107.42,49.78-4,.86-46,9.14-46,9.14-38.84,7.19-114.16,18-118.72-4.9l-21.46-93.08c5.14,17.5,73.35,7.82,113.8.45l56.18-11.11c39.78-8.41,109.9-25.91,107.92-44.49Z"/><path class="cls-4" d="M2406.25,868.07c4.71,23.73-68.49,42.46-107.22,50.82-4,.86-46,9.14-46,9.14-38.85,7.17-114.2,17.87-118.92-5.94l-22.16-96.63c5.28,18.17,73.52,8.64,114,1.29l56.18-11.11c39.78-8.43,109.87-26.06,107.75-45.33Z"/><path class="cls-22" d="M2992.62,151.16s-2.58-55.52,12-65.74,20.69-8.81,20.69-8.81,9.08-3.13,25.21,10.55,32,39.33,32,39.33Z"/><path class="cls-23" d="M3219.13,203c16.07,0,16.35,20.82,16.35,20.82-1.66,19.09-73,22.7-113.16,23.21l-56.59,0c-40.62-.65-108.59-4.54-110.21-23.17,0,0,.28-20.82,16.35-20.82h247.27Z"/><path class="cls-4" d="M3108,347c0,14.08,8.85,24.81,19.67,24.81h23.62c10.82,0,19.67-11.52,19.67-25.59V339"/><path class="cls-4" d="M2976.53,171.78c-9.66,33.32-1.35,65.93-1.35,65.93l113.11,39.51,127.52-39.51s34.71-136.31-120.32-136.31q-6.69,0-12.92.33"/><path class="cls-22" d="M2976.53,171.78c9.52-32.84,36.49-66.37,106-70,0,0-11.29,37.23-36.36,54.58S2976.53,171.78,2976.53,171.78Z"/><path class="cls-7" d="M3024.06,195.81s1.81-7.64,9-7.64,9,7.64,9,7.64V208.7s-0.36,9-9,9-9-9-9-9V195.81Z"/><path class="cls-7" d="M3149,195.81s1.81-7.64,9-7.64,9,7.64,9,7.64V208.7s-0.36,9-9,9-9-9-9-9V195.81Z"/><path class="cls-18" d="M3095.49,200.49s0.64,12.11-8.71,10.2-8.29-8.92-8.29-8.92"/><path class="cls-18" d="M3095.51,200.49s-0.64,12.11,8.71,10.2,8.29-8.92,8.29-8.92"/><path class="cls-4" d="M3198.38,151.16s2.58-55.52-12-65.74-20.69-8.81-20.69-8.81-9.08-3.13-25.21,10.55-32,39.33-32,39.33Z"/><path class="cls-24" d="M3018.62,215.07s5.44,1.81,5.44,9-5.44,9-5.44,9h-9.18s-6.38-.36-6.38-9,6.38-9,6.38-9h9.18Z"/><path class="cls-24" d="M3182.5,217.49s5.44,1.81,5.44,9-5.44,9-5.44,9h-9.18s-6.38-.36-6.38-9,6.38-9,6.38-9h9.18Z"/><path class="cls-4" d="M3086.54,347c0,14.08-8.85,24.81-19.67,24.81h-23.62c-10.82,0-19.67-11.52-19.67-25.59V339"/><path class="cls-22" d="M3232.59,319c0,23.91-74.55,28-113.7,28.63-4,.07-46.36,0-46.36,0-39-.52-114.13-4.64-114.13-28.64l-2.89-97.93c1.62,18.63,69.6,22.51,110.21,23.17l56.59,0c40.18-.51,111.5-4.12,113.16-23.21Z"/><path class="cls-4" d="M2956.22,226.46c-12.79,14.44-16.14,36.68-17,46.55l-0.92,12.14c-0.27,6.69.07,17.06,3.55,26.51,2.52,6.82,7.66,9.26,12.65,9.88,12.65,1.57,24.55-5.69,24.55-5.69,4.22-2.74,7.76-7.2,7-14.43-1.69-16.53-12.15-31.51-12.15-31.51"/><path class="cls-4" d="M3234.77,226.46c12.79,14.44,16.14,36.68,17,46.55l0.92,12.14c0.27,6.69-.07,17.06-3.55,26.51-2.52,6.82-7.66,9.26-12.65,9.88-12.65,1.57-24.55-5.69-24.55-5.69-4.22-2.74-7.76-7.2-7-14.43,1.69-16.53,12.15-31.51,12.15-31.51"/><path class="cls-25" d="M3018,947.53c14.15,0,14.4,18.34,14.4,18.34-1.46,16.81-64.27,20-99.65,20.44l-49.83,0c-35.77-.58-95.62-4-97.05-20.4,0,0,.24-18.34,14.4-18.34H3018Z"/><path class="cls-4" d="M2868.29,1074.06c0,12.39-7.76,18.76-17.28,18.76h-20.8c-9.53,0-17.32-10.14-17.32-22.53v-4.6"/><path class="cls-4" d="M2950,1074.28c0,12.39,7.79,21.85,17.32,21.85h20.8c9.53,0,17.32-10.14,17.32-22.53v-6.31"/><path class="cls-4" d="M3015.11,978.09s30.56-120-105.95-120-105.95,120-105.95,120l99.6,34.79Z"/><path class="cls-7" d="M2846.26,941.18s1.59-6.73,7.9-6.73,7.9,6.73,7.9,6.73v11.35s-0.32,7.9-7.9,7.9-7.9-7.9-7.9-7.9V941.18Z"/><path class="cls-7" d="M2956.28,941.18s1.59-6.73,7.9-6.73,7.9,6.73,7.9,6.73v11.35s-0.32,7.9-7.9,7.9-7.9-7.9-7.9-7.9V941.18Z"/><path class="cls-26" d="M3029.88,1049.67c0,21.05-65.65,24.64-100.12,25.21-3.56.06-40.82,0-40.82,0-34.37-.46-100.5-4.09-100.5-25.22l-2.55-86.23c1.43,16.41,61.28,19.83,97.05,20.4l49.83,0c35.38-.45,98.19-3.63,99.65-20.44Z"/><path class="cls-4" d="M2786.52,968.18c-11.26,12.71-14.21,32.3-15,41l-0.81,10.69c-0.24,5.89.06,15,3.13,23.35,2.21,6,6.75,8.15,11.14,8.7,11.14,1.38,21.62-5,21.62-5a12.76,12.76,0,0,0,6.18-12.71c-1.49-14.55-10.7-27.75-10.7-27.75"/><path class="cls-4" d="M2999.3,979.18c3.22-16.67,21.56-30.56,28-36.47l8-7.16c4.52-3.78,11.94-9.11,20.42-11.75,6.11-1.9,10.58.38,13.69,3.53,7.88,8,9.2,20.19,9.2,20.19a12.76,12.76,0,0,1-6.31,12.65c-12.45,7.69-28.52,8.43-28.52,8.43"/><path class="cls-27" d="M2833.34,882.33s0-47.88,6.45-60.77,14.31-21.24,23.65-21.18c5.88,0,17.78,3.68,22.39,18.41s-6.86,49.88-6.86,49.88Z"/><path class="cls-28" d="M2843.1,873.64s0-30.43,4.1-38.63,9.09-13.5,15-13.46c3.74,0,11.3,2.34,14.23,11.71S2872.1,865,2872.1,865Z"/><path class="cls-27" d="M2985,882.91s0-47.88-6.45-60.77-14.31-21.24-23.65-21.18c-5.88,0-17.78,3.68-22.39,18.41s6.86,49.88,6.86,49.88Z"/><path class="cls-28" d="M2975.23,874.22s0-30.43-4.1-38.63-9.09-13.5-15-13.46c-3.74,0-11.3,2.34-14.23,11.71s4.36,31.71,4.36,31.71Z"/><path class="cls-7" d="M2904.47,942.68a6.09,6.09,0,0,1,4.46-2.1,8.25,8.25,0,0,1,4.92,2.1s-1,4.16-4.69,4.16S2904.47,942.68,2904.47,942.68Z"/><path class="cls-18" d="M2909.15,945.3s0.56,10.67-7.67,9-7.3-7.86-7.3-7.86"/><path class="cls-18" d="M2909.17,945.3s-0.56,10.67,7.67,9,7.3-7.86,7.3-7.86"/></svg>