<?xml version="1.0" standalone="no"?>
<!DOCTYPE svg PUBLIC "-//W3C//DTD SVG 20010904//EN"
 "http://www.w3.org/TR/2001/REC-SVG-20010904/DTD/svg10.dtd">
<svg version="1.0" xmlns="http://www.w3.org/2000/svg"
 width="150.000000pt" height="150.000000pt" viewBox="0 0 150.000000 150.000000"
 preserveAspectRatio="xMidYMid meet">
<metadata>
Created by potrace 1.11, written by Peter Selinger 2001-2013
</metadata>
<g transform="translate(0.000000,150.000000) scale(0.100000,-0.100000)"
fill="#000000" stroke="none">
<path d="M712 1484 c-43 -17 -72 -68 -68 -115 4 -42 30 -86 55 -94 10 -3 17
-15 17 -30 0 -20 -5 -25 -25 -25 -50 -1 -107 -11 -171 -31 -182 -57 -286 -178
-314 -367 -2 -19 -15 -41 -30 -53 -14 -11 -30 -39 -37 -62 -6 -23 -19 -58 -30
-77 -62 -114 -64 -349 -3 -385 9 -5 38 -24 63 -41 26 -17 56 -34 69 -38 12 -4
22 -12 22 -17 0 -5 0 -11 0 -14 -1 -13 31 -62 54 -84 21 -20 36 -24 105 -26
94 -2 134 12 159 55 l17 30 165 0 165 0 15 -32 c26 -55 58 -71 144 -69 42 1
87 7 101 13 32 14 65 67 68 107 2 24 8 32 29 36 14 4 37 16 51 29 13 12 38 28
55 35 19 8 37 27 48 49 34 73 21 269 -24 346 -10 17 -24 53 -31 79 -8 28 -24
56 -39 68 -16 12 -28 34 -33 62 -12 70 -17 86 -44 142 -31 62 -97 132 -158
168 -67 40 -186 73 -272 76 -26 1 -31 5 -31 26 0 15 7 27 17 30 23 8 49 49 54
87 11 90 -79 158 -163 122z"/>
</g>
</svg>
