<svg xmlns="http://www.w3.org/2000/svg" viewBox="0 0 826.7 279.86"><defs><style>.cls-1{fill:#fff;}.cls-2{fill:#5f6477;}.cls-3{fill:#414551;}</style></defs><title>Web_Footer_Revised </title><g id="Layer_2" data-name="Layer 2"><g id="Layer_9" data-name="Layer 9"><path class="cls-1" d="M403.33,147.47c3,0,3-4.68,0-4.68s-3,4.68,0,4.68Z"/><path class="cls-2" d="M0,97.09S191.64,100,286.65,63.75,616.81-47.58,826.7,43L825,279.86H0Z"/><path class="cls-3" d="M0,241s293.75-10.76,388.75-21.53S615,173.72,825,200.63v79.22H0Z"/><path class="cls-1" d="M42,210a1.5,1.5,0,0,0,0-3,1.5,1.5,0,0,0,0,3Z"/><path class="cls-1" d="M93.33,153.8a1.28,1.28,0,0,0,0-2.55,1.28,1.28,0,0,0,0,2.55Z"/><path class="cls-1" d="M339.33,168.47a1.28,1.28,0,0,0,0-2.55,1.28,1.28,0,0,0,0,2.55Z"/><path class="cls-1" d="M176.67,119.38a.85.85,0,0,0,0-1.7.85.85,0,0,0,0,1.7Z"/><path class="cls-1" d="M271.33,134.71a.85.85,0,0,0,0-1.7.85.85,0,0,0,0,1.7Z"/><path class="cls-1" d="M588,132a.85.85,0,0,0,0-1.7.85.85,0,0,0,0,1.7Z"/><path class="cls-1" d="M755.33,47.38a.85.85,0,0,0,0-1.7.85.85,0,0,0,0,1.7Z"/><path class="cls-1" d="M96.67,102.28a.43.43,0,0,0,0-.85.43.43,0,0,0,0,.85Z"/><path class="cls-1" d="M328.67,84.28a.43.43,0,0,0,0-.85.43.43,0,0,0,0,.85Z"/><path class="cls-1" d="M398.67,53a.43.43,0,0,0,0-.85.43.43,0,0,0,0,.85Z"/><path class="cls-1" d="M477.33,27.62a.43.43,0,0,0,0-.85.43.43,0,0,0,0,.85Z"/><path class="cls-1" d="M492.67,51a.43.43,0,0,0,0-.85.43.43,0,0,0,0,.85Z"/><path class="cls-1" d="M652,21a.43.43,0,0,0,0-.85.43.43,0,0,0,0,.85Z"/><path class="cls-1" d="M661.74,104.24a.43.43,0,0,0,0-.85.43.43,0,0,0,0,.85Z"/></g></g></svg>