<svg xmlns="http://www.w3.org/2000/svg" viewBox="0 0 52 41.72"><defs><style>.cls-1,.cls-2,.cls-3,.cls-5,.cls-6{fill:none;}.cls-1,.cls-2,.cls-3,.cls-4,.cls-5,.cls-6{stroke:#686868;stroke-miterlimit:10;}.cls-2,.cls-3,.cls-4,.cls-6{stroke-linecap:round;}.cls-3,.cls-4,.cls-5{stroke-width:1.23px;}.cls-4{fill:#fff;}.cls-6{stroke-width:0.62px;}</style></defs><title>Expression_Icon</title><g id="Layer_2" data-name="Layer 2"><g id="Layer_17" data-name="Layer 17"><circle class="cls-1" cx="26.17" cy="9.64" r="9.14"/><circle class="cls-1" cx="22.53" cy="8.47" r="1.17"/><circle class="cls-1" cx="28.47" cy="8.47" r="1.17"/><path class="cls-1" d="M26,15.31a6.55,6.55,0,0,1-5.25-2.63"/><circle class="cls-2" cx="42.36" cy="32.08" r="9.14"/><circle class="cls-2" cx="42.9" cy="35.17" r="3.09"/><path class="cls-3" d="M41.09,27.82a2.28,2.28,0,0,1-2,1.51h.09a2.32,2.32,0,0,1-2-1.54"/><path class="cls-3" d="M47.64,28.7c-.45,1-1.17,1.86-2,1.86h.09c-.81,0-1.53-.76-2-1.72"/><circle class="cls-2" cx="9.64" cy="32.08" r="9.14"/><path class="cls-3" d="M14.35,35.08A6.78,6.78,0,0,1,9.1,37.95h.23A6.66,6.66,0,0,1,4.08,35.2"/><line class="cls-4" x1="9.06" y1="29.33" x2="9.06" y2="29.33"/><ellipse class="cls-5" cx="5.8" cy="29.2" rx="2.81" ry="1.98"/><line class="cls-6" x1="5.11" y1="28.18" x2="3.86" y2="29.44"/><ellipse class="cls-5" cx="12.53" cy="29.2" rx="2.81" ry="1.98"/><line class="cls-6" x1="11.85" y1="28.18" x2="10.59" y2="29.44"/></g></g></svg>