<svg xmlns="http://www.w3.org/2000/svg" viewBox="0 0 51.98 42.55"><defs><style>.cls-1{fill:none;stroke:#686868;stroke-miterlimit:10;}</style></defs><title>Perception_Icon </title><g id="Layer_2" data-name="Layer 2"><g id="Layer_17" data-name="Layer 17"><path class="cls-1" d="M51.58,26.45A5.77,5.77,0,0,0,47,24.17a6.15,6.15,0,0,0-5.93,6.35,6.36,6.36,0,0,0,3.76,5.92s.89.68.54,1.22a3.29,3.29,0,0,0-.44.86,2.77,2.77,0,0,0,5.31,1.53"/><path class="cls-1" d="M48.54,36.74a2.36,2.36,0,0,1,0-4.71,2.14,2.14,0,0,1,1.69.85"/><path class="cls-1" d="M34.46,32.31a8.19,8.19,0,0,1,5.76,10"/><path class="cls-1" d="M34.46,35.27A5.05,5.05,0,0,1,38,41.47"/><path class="cls-1" d="M11.24,42.05a13.91,13.91,0,0,0,11.31-5.54v-.25A14,14,0,0,0,11.42,31"/><path class="cls-1" d="M17.66,32.55a6.11,6.11,0,0,1-6.19,5.31,6.12,6.12,0,0,1-6.18-5.24v0A11.76,11.76,0,0,1,11.47,31a11.79,11.79,0,0,1,6.16,1.61"/><path class="cls-1" d="M11.81,42.05A13.91,13.91,0,0,1,.5,36.52v-.25A14,14,0,0,1,11.63,31"/><line class="cls-1" x1="4.5" y1="27.01" x2="5.68" y2="30.53"/><line class="cls-1" x1="11.48" y1="26.48" x2="11.48" y2="29.26"/><line class="cls-1" x1="18.44" y1="27.01" x2="17.27" y2="30.5"/><path class="cls-1" d="M21.58,10.33a6,6,0,1,1,9,.15"/><line class="cls-1" x1="23.98" y1="27.46" x2="32.94" y2="27.46"/><path class="cls-1" d="M32.94,27.46A22.15,22.15,0,0,0,35,24a11.34,11.34,0,0,0,1.35-4.48V17a1.66,1.66,0,0,0-1.4-1.82h0a1.54,1.54,0,0,0-1.36,1.39V15.44a1.66,1.66,0,0,0-1.4-1.82h0a1.66,1.66,0,0,0-1.4,1.82h0v-1a1.66,1.66,0,0,0-1.4-1.82h0A1.66,1.66,0,0,0,28,14.4V9.54a1.82,1.82,0,0,0-1.82-1.82h0a1.82,1.82,0,0,0-1.82,1.82v10h0l-2.12-4.3a2.5,2.5,0,0,0-3.33-1.18h0l.17-.08c-1.33.69-.86,4.25,1.05,7.95,1.33,2.58,2.5,4.81,3.85,5.53"/></g></g></svg>