<svg xmlns="http://www.w3.org/2000/svg" viewBox="0 0 46.85 47.92"><defs><style>.cls-1{fill:#ffe59a;}.cls-1,.cls-2,.cls-3,.cls-4,.cls-5{stroke:#686868;stroke-miterlimit:10;}.cls-2,.cls-3,.cls-4,.cls-5{fill:none;}.cls-3{stroke-width:1.27px;}.cls-4{stroke-width:2px;}.cls-5{stroke-width:1.03px;}</style></defs><title>Learning_Icon</title><g id="Layer_2" data-name="Layer 2"><g id="Layer_17" data-name="Layer 17"><line class="cls-1" x1="21.5" y1="16.85" x2="21.5" y2="21.35"/><polyline class="cls-2" points="14 42.85 16.17 42.85 16.5 41.75 16.5 34.85"/><polyline class="cls-2" points="44.5 31.35 44.5 26.52 43.53 25.85 38.5 25.85"/><line class="cls-3" x1="21.5" y1="21.85" x2="21.5" y2="16.85"/><path class="cls-2" d="M23,21.85h6.8a2.56,2.56,0,0,1,2.7,2.64v7.26a3,3,0,0,1-2.7,3.1H23m5-8.51a1.85,1.85,0,1,0,1.85,1.85A1.85,1.85,0,0,0,28,26.34Z"/><circle class="cls-2" cx="22.83" cy="14.81" r="2.42"/><line class="cls-2" y1="38.85" x2="3" y2="38.85"/><line class="cls-2" x1="5" y1="38.85" x2="11" y2="38.85"/><line class="cls-2" x1="15.5" y1="15.35" x2="15.5" y2="13.35"/><polyline class="cls-2" points="21 3.85 15.44 3.85 15.5 4.41 15.5 12.35"/><line class="cls-2" x1="15.5" y1="18.35" x2="15.5" y2="16.35"/><line class="cls-2" x1="15.5" y1="20.35" x2="15.5" y2="19.35"/><line class="cls-2" x1="17.5" y1="8.35" x2="17.5" y2="11.35"/><line class="cls-2" x1="17.5" y1="12.35" x2="17.5" y2="19.35"/><circle class="cls-2" cx="22.33" cy="3.63" r="1.71"/><line class="cls-4" x1="41" y1="27.35" x2="40" y2="27.35"/><line class="cls-4" x1="43" y1="27.35" x2="42" y2="27.35"/><line class="cls-2" x1="24.5" y1="45.35" x2="24.5" y2="42.35"/><line class="cls-2" x1="24.5" y1="41.35" x2="24.5" y2="37.35"/><line class="cls-2" x1="27.5" y1="35.35" x2="27.5" y2="38.35"/><polyline class="cls-2" points="35 45.85 27.92 45.85 27.5 45.17 27.5 39.35"/><circle class="cls-2" cx="36.64" cy="45.71" r="1.71"/><line class="cls-2" x1="27.5" y1="21.35" x2="27.5" y2="18.35"/><polyline class="cls-2" points="37 1.85 28.17 1.85 27.5 3.49 27.5 17.35"/><circle class="cls-2" cx="38.28" cy="2.21" r="1.71"/><path class="cls-2" d="M23,34.85H15.77a3.47,3.47,0,0,1-3.27-3.1V24.49c0-1.57,1.7-2.64,3.27-2.64H23m-5.3,4.49a1.85,1.85,0,1,0,1.85,1.85A1.85,1.85,0,0,0,17.7,26.34Z"/><line class="cls-2" x1="10" y1="42.85" x2="8" y2="42.85"/><polyline class="cls-5" points="8.5 17.35 8.5 22.08 8.72 22.35 14 22.35"/><line class="cls-2" x1="12" y1="42.85" x2="11" y2="42.85"/><circle class="cls-2" cx="8.16" cy="15.66" r="1.71"/><circle class="cls-2" cx="44.64" cy="32.71" r="1.71"/><path class="cls-2" d="M6.5,27.85V26.47a2.81,2.81,0,0,1,3-2.62h1v8h-1a2.81,2.81,0,0,1-3-2.62V27.85"/><path class="cls-2" d="M38.5,27.85v1.38a2.81,2.81,0,0,1-3,2.62h-1v-8h1a2.81,2.81,0,0,1,3,2.62v1.38"/></g></g></svg>