<svg id="Layer_17" data-name="Layer 17" xmlns="http://www.w3.org/2000/svg" viewBox="0 0 192.78 204"><defs><style>.cls-1{fill:#f27a9d;}.cls-2,.cls-3,.cls-4,.cls-5,.cls-8{fill:none;}.cls-2,.cls-3,.cls-4,.cls-5{stroke:#fff;stroke-miterlimit:10;}.cls-2{stroke-width:4.54px;}.cls-3{stroke-width:4.12px;}.cls-4{stroke-width:3.74px;}.cls-5{stroke-width:4.96px;}.cls-6{fill:#bed7ed;}.cls-7{fill:#15a7f9;}.cls-9{fill:#fff;}.cls-10{fill:#444;}.cls-11{fill:#62bffc;}.cls-12{fill:#d55480;}</style></defs><title>icon_learning</title><path class="cls-1" d="M416.77,2433.75c0,24.77-9.65,47.29,4,65,17.38,22.51,61.43,37,90.74,37,52.32,0,94.74-45.67,94.74-102,0-27.91-22.41-44.58-39.28-63-17.18-18.76-29.05-39-55.45-39C459.18,2331.75,416.77,2377.42,416.77,2433.75Z" transform="translate(-413.46 -2331.75)"/><line class="cls-2" x1="35.5" y1="41.5" x2="45.5" y2="41.5"/><line class="cls-2" x1="50.5" y1="41.5" x2="73" y2="41.5"/><line class="cls-2" x1="29.5" y1="75.5" x2="35" y2="75.5"/><polyline class="cls-2" points="70.5 96 70.5 76.8 67.79 75.5 38.5 75.5"/><line class="cls-2" x1="20.5" y1="75.5" x2="26" y2="75.5"/><line class="cls-2" x1="10.5" y1="75.5" x2="16" y2="75.5"/><line class="cls-2" x1="54" y1="85.5" x2="44" y2="85.5"/><line class="cls-2" x1="39" y1="85.5" x2="16.5" y2="85.5"/><circle class="cls-3" cx="70.5" cy="101" r="6"/><line class="cls-2" x1="181.5" y1="89.5" x2="176" y2="89.5"/><line class="cls-2" x1="190.5" y1="89.5" x2="185" y2="89.5"/><line class="cls-2" x1="185.5" y1="99.5" x2="175.5" y2="99.5"/><line class="cls-2" x1="172" y1="99.5" x2="157" y2="99.5"/><polyline class="cls-2" points="135.69 107.31 135.69 90.63 138.36 89.5 167.13 89.5"/><circle class="cls-4" cx="134.94" cy="112.06" r="5.44"/><line class="cls-2" x1="177.5" y1="65.5" x2="167.5" y2="65.5"/><polyline class="cls-3" points="117.5 91 117.5 67.12 121.31 65.5 162.5 65.5"/><circle class="cls-3" cx="117.5" cy="98" r="6"/><line class="cls-2" x1="30.5" y1="52.5" x2="40.5" y2="52.5"/><polyline class="cls-5" points="96.5 84 96.5 54.5 92.01 52.5 43.5 52.5"/><circle class="cls-3" cx="96.5" cy="90" r="6"/><rect class="cls-6" x="95.72" y="110.87" width="1.4" height="6.83"/><path class="cls-7" d="M547.53,2482.55c0-3.19-16.87-3.61-37.68-3.61s-37.68.42-37.68,3.61l0,13.27,75.34,0v-13.25Z" transform="translate(-413.46 -2331.75)"/><path class="cls-8" d="M509.82,2488.63" transform="translate(-413.46 -2331.75)"/><path class="cls-9" d="M522.84,2515.55c0,3.79,2.38,6.68,5.29,6.68h6.36c2.91,0,5.29-3.1,5.29-6.89v-1.93" transform="translate(-413.46 -2331.75)"/><path class="cls-9" d="M496.8,2515.55c0,3.79-2.38,6.68-5.29,6.68h-6.36c-2.91,0-5.29-3.1-5.29-6.89v-1.93" transform="translate(-413.46 -2331.75)"/><path class="cls-9" d="M542.21,2486.14s9.34-36.69-32.39-36.69-32.39,36.69-32.39,36.69l30.45,10.63Z" transform="translate(-413.46 -2331.75)"/><path class="cls-10" d="M490.59,2474.86a2.44,2.44,0,0,1,4.83,0v3.47a2.41,2.41,0,1,1-4.83,0v-3.47Z" transform="translate(-413.46 -2331.75)"/><path class="cls-10" d="M524.23,2474.86a2.44,2.44,0,0,1,4.83,0v3.47a2.41,2.41,0,1,1-4.83,0v-3.47Z" transform="translate(-413.46 -2331.75)"/><path class="cls-11" d="M547.53,2507.69c0,6.3-16.87,8.78-37.68,8.78s-37.68-2.48-37.68-8.78l0.06-25.14c0,3.19,16.81,6.51,37.62,6.51s37.74-3.32,37.74-6.51Z" transform="translate(-413.46 -2331.75)"/><path class="cls-9" d="M472.08,2482.77c-3.44,3.89-4.34,9.87-4.58,12.53l-0.25,3.27a19.13,19.13,0,0,0,1,7.14,3.91,3.91,0,0,0,3.41,2.66,11.64,11.64,0,0,0,6.61-1.53,3.9,3.9,0,0,0,1.89-3.89,20.74,20.74,0,0,0-3.27-8.48" transform="translate(-413.46 -2331.75)"/><path class="cls-9" d="M547.62,2482.77c3.44,3.89,4.34,9.87,4.58,12.53l0.25,3.27a19.13,19.13,0,0,1-1,7.14,3.91,3.91,0,0,1-3.41,2.66,11.64,11.64,0,0,1-6.61-1.53,3.9,3.9,0,0,1-1.89-3.89,20.74,20.74,0,0,1,3.27-8.48" transform="translate(-413.46 -2331.75)"/><circle class="cls-11" cx="96.42" cy="105.58" r="5.29"/><path class="cls-12" d="M472.56,2483.12a0.08,0.08,0,0,0,0-.15,0.08,0.08,0,0,0,0,.15h0Z" transform="translate(-413.46 -2331.75)"/></svg>