<svg id="Layer_17" data-name="Layer 17" xmlns="http://www.w3.org/2000/svg" viewBox="0 0 197.42 175.59"><defs><style>.cls-1{fill:#5f6477;}.cls-2{fill:#bed7ed;}.cls-3{fill:#1caaf9;}.cls-4{fill:#fff;}.cls-5{fill:#444;}.cls-6{fill:#7cbef4;}.cls-7{fill:#62bffc;}</style></defs><title>icon_os</title><path class="cls-1" d="M595.51,2734.86c0,20.71-13.21,50.37-26.85,65.14-17.38,18.81-55.76,29.2-85.07,29.2-52.32,0-85.5-43.26-85.5-90.34,0-23.44,19.1-40.25,36.11-55.66,17.16-15.55,32.35-29.59,58.63-29.59C545.15,2653.61,595.51,2687.78,595.51,2734.86Z" transform="translate(-398.1 -2653.61)"/><rect class="cls-2" x="67.46" y="50.97" width="1.68" height="8.19"/><path class="cls-3" d="M511.53,2752.44c0-3.83-20.22-4.33-45.17-4.33s-45.17.5-45.17,4.33l0,15.91,90.31,0v-15.88Z" transform="translate(-398.1 -2653.61)"/><path class="cls-4" d="M481.93,2792c0,4.54,2.86,8,6.35,8h7.62c3.49,0,6.35-3.72,6.35-8.26v-2.31" transform="translate(-398.1 -2653.61)"/><path class="cls-4" d="M450.72,2792c0,4.54-2.86,8-6.35,8h-7.62c-3.49,0-6.35-3.72-6.35-8.26v-2.31" transform="translate(-398.1 -2653.61)"/><path class="cls-4" d="M505.15,2756.75s11.2-44-38.82-44-38.82,44-38.82,44l36.5,12.75Z" transform="translate(-398.1 -2653.61)"/><path class="cls-5" d="M443.28,2743.22s0.58-2.47,2.89-2.47,2.89,2.47,2.89,2.47v4.16s-0.12,2.89-2.89,2.89-2.89-2.89-2.89-2.89v-4.16Z" transform="translate(-398.1 -2653.61)"/><path class="cls-5" d="M483.59,2743.22s0.58-2.47,2.89-2.47,2.89,2.47,2.89,2.47v4.16s-0.12,2.89-2.89,2.89-2.89-2.89-2.89-2.89v-4.16Z" transform="translate(-398.1 -2653.61)"/><path class="cls-6" d="M511.53,2782.57c0,7.55-20.22,10.52-45.17,10.52s-45.17-3-45.17-10.52l0.07-30.13c0,3.83,20.15,7.81,45.1,7.81s45.24-4,45.24-7.81Z" transform="translate(-398.1 -2653.61)"/><path class="cls-4" d="M421.09,2752.7c-4.13,4.66-5.21,11.83-5.49,15l-0.3,3.92a22.92,22.92,0,0,0,1.15,8.55,4.68,4.68,0,0,0,4.08,3.19,14,14,0,0,0,7.92-1.84,4.67,4.67,0,0,0,2.26-4.66,24.86,24.86,0,0,0-3.92-10.17" transform="translate(-398.1 -2653.61)"/><path class="cls-4" d="M506.45,2774c-1.93-5.91-.07-12.93.93-16l1.29-3.71a22.92,22.92,0,0,1,4.45-7.39,4.68,4.68,0,0,1,5-1.3,14,14,0,0,1,6.54,4.83,4.67,4.67,0,0,1,.23,5.17,24.86,24.86,0,0,1-7.64,7.77" transform="translate(-398.1 -2653.61)"/><circle class="cls-7" cx="68.3" cy="44.63" r="6.34"/><path class="cls-4" d="M575.85,2722.94v-8.73l-9.92-1.52a26.29,26.29,0,0,0-3.36-8l5.31-8.09-6.28-6.06-7.78,5.6a42.49,42.49,0,0,0-8-3.93l-1.67-9.2h-8.86l-1.67,9.22A19.11,19.11,0,0,0,526,2696l-8-5.56-6.51,6.08,5.82,8.1a14.12,14.12,0,0,0-3.28,8l-9.1,1.53v8.69l9.51,1.84a16.17,16.17,0,0,0,3.17,8.41l-5.9,7.39,5.78,6.3,8.29-5.48a12.84,12.84,0,0,0,7.88,3l1.24,9.65h9.42l1.38-9.7a31.39,31.39,0,0,0,8-3.13l8,5.65,6.23-6.28-6-7.38a21.19,21.19,0,0,0,3.82-8.13Zm-35.94,12.33a16.48,16.48,0,1,1,16.48-16.48A16.48,16.48,0,0,1,539.91,2735.27Z" transform="translate(-398.1 -2653.61)"/></svg>