<svg id="Layer_17" data-name="Layer 17" xmlns="http://www.w3.org/2000/svg" viewBox="0 0 192.78 170.5"><defs><style>.cls-1{fill:#62bffc;}.cls-2{fill:#694c44;}.cls-3{fill:#493430;}.cls-14,.cls-4,.cls-6,.cls-8{fill:none;}.cls-4,.cls-8{stroke:#d64747;}.cls-4,.cls-6,.cls-8{stroke-miterlimit:10;}.cls-4{stroke-width:1.19px;}.cls-5{fill:#fff;}.cls-6{stroke:#694c44;stroke-width:0.89px;}.cls-7{fill:#cfecf3;}.cls-8{stroke-width:1.11px;}.cls-9{fill:#5c2f36;}.cls-10{fill:#e0eaf6;}.cls-11{fill:#99b1df;}.cls-12{fill:#bed7ed;}.cls-13{fill:#d55480;}.cls-15{fill:#444;}.cls-16{fill:#f1799c;}</style></defs><title>Zoetic Site Web and Mobile_mitaedit2</title><path class="cls-1" d="M602.6,2181.27c0,20.71,9.65,39.53-4,54.3-17.38,18.81-61.43,31-90.74,31-52.32,0-94.74-38.17-94.74-85.25S455.54,2096,507.86,2096,602.6,2134.19,602.6,2181.27Z" transform="translate(-413.13 -2096.02)"/><path class="cls-2" d="M445.12,2127.24s-6.52-8.5,2.17-13.24,12.65,6.62,12.65,6.62Z" transform="translate(-413.13 -2096.02)"/><path class="cls-2" d="M490.52,2127.24s6.52-8.5-2.17-13.24-12.65,6.62-12.65,6.62Z" transform="translate(-413.13 -2096.02)"/><path class="cls-3" d="M499.5,2144.81c4.12,0,4.19,5.34,4.19,5.34-0.43,4.89-18.7,5.81-29,5.95H460.2c-10.41-.17-27.82-1.16-28.24-5.94,0,0,.07-5.34,4.19-5.34H499.5Z" transform="translate(-413.13 -2096.02)"/><path class="cls-4" d="M467.82,2156.07" transform="translate(-413.13 -2096.02)"/><path class="cls-2" d="M455.93,2181.62c0,3.61-2.26,5.46-5,5.46h-6.05c-2.77,0-5-3-5-6.56v-1.34" transform="translate(-413.13 -2096.02)"/><path class="cls-2" d="M479.7,2181.68c0,3.61,2.27,6.36,5,6.36h6.05c2.77,0,5-3,5-6.56v-1.84" transform="translate(-413.13 -2096.02)"/><path class="cls-5" d="M498.65,2153.7s8.89-34.92-30.82-34.92S437,2153.7,437,2153.7l29,10.12Z" transform="translate(-413.13 -2096.02)"/><path class="cls-2" d="M448.07,2140.13a3.86,3.86,0,0,1,7.13,1.49l-0.49,2.34-0.4,1.9a3.71,3.71,0,0,1-7.13-1.49Z" transform="translate(-413.13 -2096.02)"/><path class="cls-5" d="M503.36,2160.47l-0.42,14.06c0,6.12-19.1,7.17-29.13,7.34-1,0-11.88,0-11.88,0-10-.13-29.24-1.19-29.24-7.34L432.27,2160" transform="translate(-413.13 -2096.02)"/><path class="cls-2" d="M432.14,2150.81c-3.28,3.7-4.13,9.4-4.36,11.93l-0.23,3.11a18.2,18.2,0,0,0,.91,6.79,3.72,3.72,0,0,0,3.24,2.53,11.07,11.07,0,0,0,6.29-1.46,3.71,3.71,0,0,0,1.8-3.7,19.74,19.74,0,0,0-3.11-8.07" transform="translate(-413.13 -2096.02)"/><path class="cls-2" d="M503.5,2150.81c3.28,3.7,4.13,9.4,4.36,11.93l0.23,3.11a18.2,18.2,0,0,1-.91,6.79,3.72,3.72,0,0,1-3.24,2.53,11.07,11.07,0,0,1-6.29-1.46,3.71,3.71,0,0,1-1.8-3.7,19.74,19.74,0,0,1,3.11-8.07" transform="translate(-413.13 -2096.02)"/><path class="cls-2" d="M466.46,2143.4a1.77,1.77,0,0,1,1.3-.61,2.4,2.4,0,0,1,1.43.61A1.38,1.38,0,0,1,466.46,2143.4Z" transform="translate(-413.13 -2096.02)"/><path class="cls-6" d="M467.82,2144.16s0.16,3.1-2.23,2.61-2.12-2.29-2.12-2.29" transform="translate(-413.13 -2096.02)"/><path class="cls-6" d="M467.82,2144.16s-0.16,3.1,2.23,2.61,2.12-2.29,2.12-2.29" transform="translate(-413.13 -2096.02)"/><path class="cls-2" d="M487.57,2140.13a3.86,3.86,0,0,0-7.13,1.49l0.49,2.34,0.4,1.9a3.71,3.71,0,0,0,7.13-1.49Z" transform="translate(-413.13 -2096.02)"/><path class="cls-2" d="M503.36,2160.47c-0.43,4.89-18.06,5.38-28.35,5.51h-14.5c-10.41-.17-27.82-1.16-28.24-5.94V2160L432,2149.44c0.42,4.77,17.83,5.77,28.24,5.94h14.5c10.29-.13,28.57-1.06,29-5.95l-0.33,11" transform="translate(-413.13 -2096.02)"/><path class="cls-7" d="M583.5,2149.89c3.86,0,3.92,5,3.92,5-0.4,4.58-17.51,5.45-27.15,5.57H546.69c-9.75-.16-26.06-1.09-26.45-5.56,0,0,.07-5,3.92-5H583.5Z" transform="translate(-413.13 -2096.02)"/><path class="cls-8" d="M553.83,2160.44" transform="translate(-413.13 -2096.02)"/><path class="cls-5" d="M542.7,2184.37c0,3.38-2.11,5.11-4.71,5.11h-5.67c-2.6,0-4.72-2.76-4.72-6.14v-1.25" transform="translate(-413.13 -2096.02)"/><path class="cls-5" d="M565,2184.43c0,3.38,2.12,6,4.72,6h5.67c2.6,0,4.72-2.76,4.72-6.14v-1.72" transform="translate(-413.13 -2096.02)"/><path class="cls-5" d="M582.7,2158.22s8.33-32.71-28.87-32.71S525,2158.22,525,2158.22l27.14,9.48Z" transform="translate(-413.13 -2096.02)"/><path class="cls-9" d="M536.69,2148.16a2.18,2.18,0,0,1,4.3,0v3.09a2.15,2.15,0,0,1-4.3,0v-3.09Z" transform="translate(-413.13 -2096.02)"/><path class="cls-9" d="M566.67,2148.16a2.18,2.18,0,0,1,4.3,0v3.09a2.15,2.15,0,0,1-4.3,0v-3.09Z" transform="translate(-413.13 -2096.02)"/><path class="cls-10" d="M586.73,2177.72c0,5.74-17.89,6.71-27.28,6.87-1,0-11.12,0-11.12,0-9.37-.13-27.38-1.11-27.38-6.87l-0.69-23.5c0.39,4.47,16.7,5.4,26.45,5.56h13.58c9.64-.12,26.75-1,27.15-5.57Z" transform="translate(-413.13 -2096.02)"/><path class="cls-5" d="M520.42,2155.52c-3.07,3.46-3.87,8.8-4.08,11.17l-0.22,2.91A17,17,0,0,0,517,2176a3.48,3.48,0,0,0,3,2.37,10.37,10.37,0,0,0,5.89-1.36,3.48,3.48,0,0,0,1.68-3.46,18.49,18.49,0,0,0-2.92-7.56" transform="translate(-413.13 -2096.02)"/><path class="cls-5" d="M587.25,2155.52c3.07,3.46,3.87,8.8,4.08,11.17l0.22,2.91a17,17,0,0,1-.85,6.36,3.48,3.48,0,0,1-3,2.37,10.37,10.37,0,0,1-5.89-1.36,3.48,3.48,0,0,1-1.68-3.46,18.49,18.49,0,0,1,2.92-7.56" transform="translate(-413.13 -2096.02)"/><path class="cls-11" d="M544.25,2128a0.72,0.72,0,0,1-.4-0.77s2.66-12.89,16-23.51c0,0,4.44,1.48,4.07,26.46a34.24,34.24,0,0,1-11.47,0A43.52,43.52,0,0,1,544.25,2128Z" transform="translate(-413.13 -2096.02)"/><path class="cls-5" d="M527.63,2139s-0.95-20.84,1.76-21.65,9.47,9.74,12.31,15.16c0,0-5,3-7.12,4.06A51.44,51.44,0,0,1,527.63,2139Z" transform="translate(-413.13 -2096.02)"/><path class="cls-10" d="M531.56,2124.12c-0.2-.23-0.4-0.16-0.42.14l-0.73,7.67a0.63,0.63,0,0,0,.49.66l3.09,0.62a0.92,0.92,0,0,0,.86-0.35l1.67-2.43a0.74,0.74,0,0,0-.06-0.87Z" transform="translate(-413.13 -2096.02)"/><path class="cls-5" d="M580,2139s0.95-20.84-1.76-21.65-9.47,9.74-12.31,15.16c0,0,5,3,7.12,4.06A51.44,51.44,0,0,0,580,2139Z" transform="translate(-413.13 -2096.02)"/><path class="cls-10" d="M576.11,2124.12c0.2-.23.4-0.16,0.42,0.14l0.73,7.67a0.63,0.63,0,0,1-.49.66l-3.09.62a0.92,0.92,0,0,1-.86-0.35l-1.67-2.43a0.74,0.74,0,0,1,.06-0.87Z" transform="translate(-413.13 -2096.02)"/><rect class="cls-12" x="95.6" y="63.59" width="1.66" height="8.07"/><path class="cls-13" d="M554,2206.79c0-3.77-19.94-4.27-44.53-4.27s-44.53.5-44.53,4.27l0,15.69,89,0v-15.66Z" transform="translate(-413.13 -2096.02)"/><path class="cls-14" d="M509.48,2214" transform="translate(-413.13 -2096.02)"/><path class="cls-5" d="M524.87,2245.78c0,4.48,2.82,7.89,6.26,7.89h7.51c3.44,0,6.26-3.66,6.26-8.14v-2.28" transform="translate(-413.13 -2096.02)"/><path class="cls-5" d="M494.1,2245.78c0,4.48-2.82,7.89-6.26,7.89h-7.51c-3.44,0-6.26-3.66-6.26-8.14v-2.28" transform="translate(-413.13 -2096.02)"/><path class="cls-5" d="M547.76,2211s11-43.36-38.27-43.36S471.21,2211,471.21,2211l36,12.57Z" transform="translate(-413.13 -2096.02)"/><path class="cls-15" d="M486.76,2197.7s0.58-2.43,2.85-2.43,2.85,2.43,2.85,2.43v4.1s-0.11,2.85-2.85,2.85-2.85-2.85-2.85-2.85v-4.1Z" transform="translate(-413.13 -2096.02)"/><path class="cls-15" d="M526.5,2197.7s0.58-2.43,2.85-2.43,2.85,2.43,2.85,2.43v4.1s-0.11,2.85-2.85,2.85-2.85-2.85-2.85-2.85v-4.1Z" transform="translate(-413.13 -2096.02)"/><path class="cls-16" d="M554,2236.5c0,7.44-19.94,10.37-44.53,10.37S465,2243.94,465,2236.5l0.07-29.71c0,3.77,19.87,7.7,44.46,7.7s44.6-3.93,44.6-7.7Z" transform="translate(-413.13 -2096.02)"/><path class="cls-5" d="M464.88,2207c-4.07,4.59-5.13,11.67-5.41,14.81l-0.29,3.86a22.6,22.6,0,0,0,1.13,8.43,4.62,4.62,0,0,0,4,3.14,13.75,13.75,0,0,0,7.81-1.81,4.61,4.61,0,0,0,2.23-4.59,24.51,24.51,0,0,0-3.87-10" transform="translate(-413.13 -2096.02)"/><path class="cls-5" d="M554.15,2207c4.07,4.59,5.13,11.67,5.41,14.81l0.29,3.86a22.6,22.6,0,0,1-1.13,8.43,4.62,4.62,0,0,1-4,3.14,13.75,13.75,0,0,1-7.81-1.81,4.61,4.61,0,0,1-2.23-4.59,24.51,24.51,0,0,1,3.87-10" transform="translate(-413.13 -2096.02)"/><circle class="cls-16" cx="96.43" cy="57.33" r="6.25"/><path class="cls-13" d="M465.45,2207.47a0.09,0.09,0,0,0,0-.18,0.09,0.09,0,0,0,0,.18h0Z" transform="translate(-413.13 -2096.02)"/></svg>